<?xml version="1.0" encoding="UTF-8"?>
<svg id="Layer_1" data-name="Layer 1" xmlns="http://www.w3.org/2000/svg" viewBox="0 0 749.04 626.62">
  <defs>
    <style>
      .cls-1 {
        stroke-width: 0px;
      }
    </style>
  </defs>
  <path class="cls-1" d="m58.45,384.51c.16-4.57-.05-9.1-2.5-13.13-.63-1.04-2.77-2.38-2.72-2.45,4.43-5.83,1.39-10.18-2.06-15.14-1.57-2.25,2.22-3.77,4.19-4.44,14.91-5.06,29.54-11.4,45.83-10.75,2.26.09,4.54-.73,6.83-.91,2.04-.16,3.47-.87,3.89-2.99.39-1.99-.13-3.87-2.11-4.44-4.66-1.34-3.62-4.33-3.3-7.92.42-4.72-.26-9.55-.7-14.32-.13-1.43-.82-3.84-1.65-4.02-6.86-1.55-5.19-5.8-3.34-9.96.91-2.05-1.11-3.7-1.36-3.41-3.81,4.52-10.48-3.88-13.68,3.17-.78,1.72-3.02,2.12-4.67.63-1.71-1.54-.87-3.05.27-4.73,2.09-3.07,4.07-4.66,8.25-5.98,4.85-1.53,7.89-.06,11.73.79,1.46.32,3.22.89,4.01-1.02.72-1.76-.85-2.56-1.81-3.77-4.4-5.54-12.85-4.75-16.81-10.98-.64-1.01-3.48-.89-1.8-3,.97-1.22,2.63-1.08,4.23-.29,6.9,3.38,13.63,6.88,20.04,11.29,2.69,1.85,8.28-.34,12.51-.96,3.42-.5,17.78,6.05,18.87,9.3,2.07,6.17,6.53,3.3,9.38,2.01,3.22-1.46.28-3.47-1.3-4.3-7.54-3.97-12.92-10.96-19.92-15.16-8.19-4.92-15.55-12.38-26.1-12.75-1.34-1.9.16-4.61-2.31-6.85-3.82,5.9-10.79,3.11-16.06,5.8-1.35.69-3.81-.33-3.66,2.33.18,3.24,3.07,2.43,4.71,2.15,5.88-.99,11.7-2.41,17.53-3.66-2.9,5.21,2.32,5.1,4.58,6.74,2.1,1.52,5.05,2.56,2.34,5.7-2.66,3.07-3.42-.22-5.23-1.53-6.67-4.83-14.49-3.99-22.06-3.07-2.97.36-2.45,3.6-2.52,5.78-.16,5.01-.05,10.04-.05,15.4-4.3-1.29-2.3-5.56-5.48-7.29-3.59,6.69-1.42,13.99-2.59,21.01-2.54-3.78-4.83-7.38-1.13-11.61.15-.18.26-.51.22-.73-3.15-14.44.38-30.24-9.69-43.38-2.94-3.84-3.71-9.39-3.67-14.74.15-19.59-.14-39.18.02-58.77.06-7.08,3.88-12.77,10.44-14.69,6.16-1.81,10.86,2.54,13.21,8,1.75,4.05,7.08,4.35,8.22,9.09-2.82,2.12-8.13-3.19-8.91,2.17-.74,5.1-2.11,10.93,1.72,15.47,1.55,1.83,2.08,4.09,3.67,5.75-1.94-1.28-4.17-2.63-6.21-1.01-1.76,1.39-.24,3.76.76,4.6,1.34,1.12,3.11,3.47,4.93,2.43,2.28-1.3,1.68-3.85.53-5.99,2.59,4.77,5.18,9.54,7.75,14.29-4.13-1.41-8.43-2.39-12.29-4.29-7.07-3.48-10.63-1.67-11.02,6.46-.2,4.09.4,8.22.21,12.32-.21,4.79-.27,11.2,3.96,12.31,5.23,1.37,7.55-4.67,9.35-9.27.1-.26.83-.27,1.69-.51.3,1.44.25,3.08.97,4.25,2.05,3.35,8.76,4.13,9.2,1.22,1-6.59,5.39-13.75-2.03-19.55-1.12-.87-1.63-1.98-.14-3.07,5.83,2.1,12.42,1.74,17.75,5.48l.23-.19c-8.49,5.22-9.49,8.9-3.4,12.61,1.37.83,4.58.45,3.45,2.94-1.25,2.75-4.28,1.53-5.91.16-4.23-3.54-5.02-1.27-5.65,2.65-.53,3.28,6.43,18.62,9.37,19.81,1.72.7,3.79,1.07,5.08-.38,3.19-3.6,6.47-2.15,9.7-.47,3.05,1.59,7.21.78,9.37,4.4.2.33,1.86-.06,2.73-.4.2-.08.25-1.62-.13-1.97-5.01-4.76,1.65-4.94,2.6-4.87,4.55.29,9.05,1.41,14,2.31-1.75,2.16-3.4,1.64-4.84,1.92-1.36.26-3.31-.28-3.27,2.15,27.86,8.64,38.47,10.03,45.24,5.93-7.26-8.2-17.67-3.37-27.53-5.9q11.51-3.76,8.36-7.15c7.98-4.81,13.8,9.49,22.15,2.56.09-.07.79.55,1.16.88,9.13,8.29,13.65,9.05,24.03,3.97,1.76-.86,2.95-4.27,5.53-.83,1.83,2.44,4.7,4.66,2.63,7.95-1.43,2.28-.99,2.18,1.18,3.38,8.94,4.97,15.43,13.87,26.71,15.56,1.9.29,2.94,7.51,8.61,4.81.19.41.67.97.54,1.22-2.83,5.52,2.42,4.26,4.22,4.31,7.86.25,13.04,5.31,18.71,9.56l.22-.22c-20.31-1.8-22.55-2.46-40.64-12.08-.23-.12-.46-.29-.7-.32-15.91-2.06-25.89-18.12-43.61-17.66-4.77.12-11.2-1.06-16.83-1.86-1.61-.23-4.1-.31-4.22,2.13-.11,2.22,1.49,3.48,3.85,4.05,16.79,4.1,32.4,10.91,46.2,21.4,5.55,4.21,12.41,7.05,15.76,13.8,0,0,.16-.17.16-.17-7.47,1.89-11.77-3.75-16.8-7.31-6.58-4.66-11.12-12.37-21.04-13.01,10.37,4.66,7.94,14.47,8.37,23.1l2.29-.65c.42-2.15.83-4.3,1.29-6.67,2.51.9,4.2,1.84,5.83,3.7,8.03,9.22,14.97,19.37,25.81,26.05,15.13,9.33,30.44,17.91,48.46,19.82,4.23.45,6.27,1.28,5.09,5.98-3.14,12.49,1.79,25.54-2.59,38.02-.71,2.03.18,4.17,3.05,4.24,2.1.05,3.82-.01,4.86-2.62,3.22-8.08-.99-17.45,4.52-25.06-4.25-5.41-.32-11.59-.22-16.88.28-15.64,3.43-31.17-4.27-46.01-.85-1.63-1.67-3.88.08-4.89,2.13-1.23,4.08.51,4.97,2.44,2.67,5.78,7.25,6.69,12.93,5.92,1.62-.22,4.24-1.79,5.11,1.5,1.93,7.26,7.4,5.88,13.1,6.6,6.36.81,12.52-3.63,18.59.03,2.65,1.6,5.08,3.31,8.51,3.01,4.63-.4.99-5.63,4.45-6.98,1.02,5.15-1.19,9.38-3.27,13.3-4.2,7.92-4.43,7.9,3.72,8.6,1.28.11,2.79-.21,3.3,1.25,1.28,3.68,4.1,3.59,5.8,1.37,1.91-2.5.12-4.68-2.83-5.74-1.56-.56-2.5-1.91-1.97-3.69.36-1.22,1.42-1.38,2.46-.86,5.07,2.51,6.6-2.01,9.13-4.55.1,2.27.2,4.53.31,6.8.07,1.35.5,2.67,2.05,2.6.81-.04,2.26-.97,2.25-1.48-.09-6.92,3.02-3.03,6.36-2.73,3.81.35,5.91,2.77,8.91,3.9l-.16-.23c.1,1.69-.83,4.02-2.17,3.17-6.03-3.81-7.83,2.03-11.05,4.42-2.3,1.7-4.53,6.24-1.89,6.31,3.52.09,4.09,8.82,9.65,2.26,7.83-9.24,10.56-8.4,18.02,2,1.12,1.56,2.64,1.52,3.57-.32,1.02-2.02,1.4-4.54,2.84-6.15,2.29-2.56,5.54-3.97,8.88-4.92.25-.07,1.03.6,1.02.91-.1,3.87-3.43,4.63-5.99,6.17-.27.16-.19.9-.56,3.12,8.43-3.61,15.31-9.24,24.3-8.87-8.87-2.59-16.91-5.48-24.12-10.97-3.39-2.58-4.91-3.5-.76-6.27,6.5-4.35,10.63-9.67,10.19-18.35-.27-5.29-1.07-9.81-6.57-9.96-5.33-.15-6.43,4.24-6.06,9.27.46,6.22-.36,6.83-5.82,7.71-1.1-2.34,1.85-2.72,2.15-4.55.67-4,.67-7.53-4.78-7.19-5.07.31-9.37-2.23-13.44-4.24-4.01-1.99-6.51-1.05-9.82.73-3.7,1.99-2.79,4.92-1.51,7.22,2.61,4.68-4.54,11.24,3.04,14.73-.46.89-.77,1.91-1.4,2.64-2.02,2.35-4.64,3.11-7.67,2.49,1.06-8.28-.14-16.38-1.23-24.6-.83-6.21-6.18-5.99-9.45-7.06-2.86-.94-5.38,2.93-4.73,6.97.19,1.16.31,2.58-.7,3.16-11.29-2.42-15.86-12.17-20.04-20.4-2.58-5.08-4.1-9.82-9.48-12.16-2.09-.91-4.63-.82-6.67-1.8-1.93-.92-4.11-4.03-5.51-.99-.97,2.11,1.97,4.29,4.75,4.76,1.01.17,2.06.17,3.09.22,2.15.1,3.57.93,2.96,3.35-.7,2.79-2.15,1.97-3.97.89-1.52-.9-3.56-.93-5.04-1.87-7.66-4.87-15.96-2.4-24.02-2.2-2.51.06-4.39,2.42-4.51,4.6-.17,3.05,2.81,2.33,4.68,2.26,2.13-.07,4.22-.69,4.38,2.54.15,2.99-1.79,3.15-4.01,3.37-3.76.36-3.31,2.58-1.69,4.78,1.12,1.53.4,4.64-1.49,5.54-1.12.54-2.03,1.78-3.17,1.98-2.08.36-2.61-1.05-2.22-2.9l-.13.21c5.87-2.85,2.79-8.22,2.12-11.64-2.32-11.9-2.8-11.81,8.52-15.54-.67-.86-1.11-1.9-1.88-2.34-2.58-1.47-3.09-3.99-1.7-5.88,1.47-2,3.5.39,5.24.92,1.18.36,2.19,1.25,3.28,1.9l-.16-.14c1.51,2.19,2.24,5.9,5.63,5.16,2.35-.51,3.4-3.07,3.99-5.94,2.85-13.85,5.2-27.93,9.59-41.32,4.88-14.87,6.39-30.95,15.49-44.43,1.93-2.85,2.61-6.64,3.48-10.09,1.18-4.68,2.68-7.45,8.05-3.92,1.97,1.3,4.83-1.56,8.42.35-3.68,1.73-6.71,3.14-9.73,4.58-3.1,1.47-5.82,3.6-6.23,7.07-.24,2.09-2.23,7.86,4.13,3.76,1.07-.69,3.03.11,4.56,0,6.48-.51,12.96,2.01,19.44-2.63,4.09-2.92,8.98,1.54,14.58,3.85-3.23.96-5.29,1.58-9.51,2.83,20.15,5.39,37.43,13.12,56.99,14.99-6.37,4.19-20.48,5-27.59,1.23-6.53-3.47-14.1-3.94-20.43-7.95-1.62-1.03-4.45-1.13-6.6.79.02,2.93,7.9.93,4.12,6.46-.97,1.42,1.41,2.1,2.39,1.48,7.75-4.92,11.42,1.02,15.28,5.8,2.07,2.56,3.34,5.54,6.96,1.84,1.21-1.24,3.09-.86,3.96.52.31.5-.95,2-1.51,3.03-.24.44-.48,1.19-.8,1.24-11.01,1.71-14.17,9.68-17.03,19.11-1.29,4.26-2.07,6.67,1.94,9.24-7.28,3.82-7.18-1.21-7.27-7.24-3.99,7.24-10.44,6.5-15.68,8.5l.2.13c1.85-6.55,8.1-8.5,12.76-12.07,5.99-4.59,6.76-9.51,1.47-14.64-12.07-11.71-25.76-20.8-42.54-24.23-2.63-.54-6.64-2.04-7.08,3.07-.33,3.82,1.59,5.51,5.51,5.71,3.91.2,8.01,0,13.48,2.52-6.47.44-11.01.94-15.55,1.01-4.32.07-6.57,2.49-8,6.1-.78,1.97-1.27,4.17.38,5.8,1.53,1.51,3.36.51,4.99-.34,2.36-1.23,4.75-1.98,8.08.29-3.68.97-3.8,6.66-8.61,4.86-5.1-1.91-6.32.72-7.12,4.91-.47,2.48-1.27,5.11-2.68,7.14-1.77,2.56-1.29,4.59.82,5.93,2.28,1.45,4.51,1.25,6.71-1.31,5.06-5.9,8.25-5.55,13.81.78-2.52,3.69-5.77-2.88-8.04.45-2.82,4.12-6.85,3.66-10.94,3.74-3.87.07-7.5,1.9-5.27,6,2.59,4.76.46,6.76-3.66,8.78,4.68,2.36,7.11.53,9.12-2.53l-.21-.17c.98,3.28,2.95,5.28,6.59,5.43,1.81.08,1.97,1.32,1.24,2.71-.58,1.11-1.5,1.34-2.48.52-4.13-3.47-8.21-1.2-13.38-.5,6.15,3.07,11.16,5.75,16.32,8.08,2.31,1.05,4.93,1.81,6.46-1.6,3.29-7.36,8.65-12.92,15.43-17.18l-.14-.2c6.04,7.59,13.76,7.29,19.12-.86,1.76-2.67,4.22-2.44,6.81-2.36,11.6.36,16.3-4.2,14.4-15.44-1.56-9.26,5.51-11.82,10.77-15.43,8.44-5.8,18.88-7.46,27.94-11.56,10.5-4.76,20.64-5.18,31.32-5.03,8.64.13,17.4-1.31,25.78,2.71,2.07,1,4.21,1.26,5.4,3.55,1.83,3.55,5.14,4.05,7.69,1.75,2.51-2.28,1.56-5.55-.33-8.4-1.96-2.96-5.36-3.23-8.06-3.96-7.91-2.13-14.93-6.89-24.54-3.21-7.25,2.78-16.29.92-24.53,1.08-1.39.03-2.63-.54-2.73-2.09-.11-1.6.39-2.99,2.21-3.59,6.67-2.19,13.19-5.36,20.03-6.39,5.71-.86,7.66-2.88,7.23-8.26-.19-2.39.22-5.11,3.4-4.96,3.06.14,2.45,3.06,2.2,4.84-.55,3.84.8,4.95,4.58,4.95,9-.01,18.01.4,27.01.61.77.02,1.8.15,2.27-.27,9-7.98,22.86-9,29.32-20.71,2.5-4.54,1.33-9.04.86-13.57-.22-2.11-2.03-2.13-3.42-.93-.95.81-2.09,2.02-2.17,3.13-1.16,15.65-18.83,14.44-25.53,24.84-2.28,3.53-8.67.24-14.37-1.88,10.44-1.93,18.27-6.16,25.15-12.73,5.22-4.98,7.19-10.96,8.08-17.52.53-3.92-1.1-5.28-5.34-3.37-5.73,2.58-11.46,4.3-5.24,12.05,1.4,1.74.88,4.62-1.36,6.22-4.01,2.88-7.34,7.85-13.24,5.88-3.97-1.33-7.12-2.25-10.15,1.87-2.09,2.85-4.28.45-5.5-1.35-1.51-2.21-1.33-4.52,1.89-5.29,4.26-1.02,8.58-1.81,12.81-2.94,3.87-1.04,7.55-1.94,4.63-7.76-1.3-2.59-.22-6.38-.22-11.76,1.62,5.76,2.1,10.32,6.95,4.28,3.75-4.67,9.01-7.29,15.41-6.9,1.57.1,3.62.96,4.97-1.51-1.38-2.44-3.83-2.83-6.3-3.08-.75-.08-1.62.4-2.29.18-14.8-4.71-27.05,5.93-40.93,6.73-4.57.26-9.12.79-14.19,1.24,1.97,4.6,5.58,2.02,8.1,2.79,1.56.48,4.18-.21,3.51,2.68-.41,1.77-2.12,3.56-4.06,2.62-12.36-5.99-21.59,1.65-31.24,7.05-10,5.59-20.74,8.47-32.01,9.77-.25.03-.51.02-.77.02-3.1-.08-6.95-5.63-9.11.98-1.71,5.24,4.24,5.61,6.11,8.62.36.57.99.97,1.81,1.74-4.36,2.47-6.83-1.56-9.88-2.42-6.9-1.95-13.56-4.81-20.26-7.43-2.43-.95-3.99-.67-4.53,2.11-.47,2.45-1.53,4.36-4.29,4.8.82-8.7-1.23-10.52-10.21-11.15-10.48-.73-20.98,1.78-31.49-.52-2.19-.48-6.41-.42-6.94,3.24-.68,4.73,4.01,3.54,6.67,4.83-4.19,10.1-8.78,20.04-11.68,30.6-.5,1.81-1.56,2.54-3.27,2.65l.19.17c-1.48-4.57-5.38-3.19-8.46-3.13-2.56.05-5.21.98-7.55-.37-2.18-1.26-6.03-2.1-4.24-5.78,1.37-2.81,1.63-7.5,7.09-6.27,4.78,1.08,4.28,3.46,2.2,6.62-.25.37-.42,1.2-.21,1.41,3.22,3.3,7.12-3.54,10.33.67,1.55-1.69,2.02-3.66.23-5.26-5.87-5.23-1.23-9.12,2.35-11.5,3.71-2.46,6.47-4.31,4.34-8.88-2.22-4.75-6.1-7.04-11.24-5.03-4.86,1.9-9.26,3.08-13.24-1.57-.65-.76-1.92-1.16-2.72-.13-5.39,6.93-8.27.87-9.39-2.73-1.55-5.01-3.81-4.35-7.21-2.94-1.13.47-2.78.21-3.01,1.89-.21,1.53,1.04,2.18,2.18,2.81,1.8.98,3.76,1.77,5.34,3.03,1.15.91,2.17,2.44.03,3.66-4.49,2.55-16.1.3-19.91-3.68-2.08-2.18-1.4-4.14-.12-6.26,1.45-2.39,4.06-5.37,1.41-7.54-2.72-2.23-5,1.27-7.02,2.98-9.1,7.71-13.64,7.75-22.76.48-3.06-2.44-4.58-5.85-3.01-8.72,1.53-2.8,5.3-1.42,7.58.2,5.87,4.16,9.7.2,13.02-3.45,1.81-1.99,1.73-3.23,5.23-1.65,5.39,2.44,10.89,1.07,14.74-4.64,1.12-1.66,3.21-5.29,5.98-3.23,2.52,1.88,1.11,4.2-1.4,6.16-1.94,1.52,2,2.59,1.34,4.49-.41.29-.81.79-1.23.82-2.26.13-4.49-3.19-6.82.07-.9,1.25-1.11,2.35.04,3.37,2.2,1.97,4.65,3.6,7.63,1.67,3.09-1.99,5.2-.74,8.28.72,7.98,3.78,17.06,5.15,25.16,7.98,9.37,3.29,16.47-2.91,24.72-1.24,2.88.58,5.18-2.66,4.96-4.71-.36-3.36-3.5-1.63-5.64-1.36-7.96,1.03-18.87.93-22.26-3.58-4.14-5.51-18.08-4.36-13.21-16.79.51-1.3-7.88-1.41-2.5-6.55,6.14-5.87,11.98-12.41,21.41-11.44,5.13.53,4.63-.18,3.45-4.67-2.44-9.27-7.13-13.71-17.11-14.11-8.98-.35-7.7-9.37-9.8-15.2-.75-2.1-.38-4.59-.52-6.91l-.22.24c16.49-5.72,32.37-12.78,47.78-21.01,10.84-5.79,22.38-8.54,34.82-5.98,3.22.66,6.77.79,9.99.19,4.12-.77,7.95-1.72,4.23-7.98-5.54-9.32-.34-18.49,10.25-18.87,15.17-.55,30.37-.69,45.55-.8,20.45-.16,39.07-7.5,57.76-14.5,6.85-2.56,13.15-2.62,20.02.52,20.41,9.35,34.49,24.69,44.84,44.25,5.01,9.47,12.04,17.59,21.66,22.94,1.63.91,2.98,1.63,3.5,3.68,2.03,7.97,7.16,10.56,15.42,10.39,22.47-.46,40.69,13.71,47.29,35.95,3.39,11.43,6.99,22.61,6.53,35.06-.39,10.62,3.33,21.14,6.04,31.55.13.5.33,1.01.32,1.51-.88,26.98,3.78,54.12-2.2,80.94-1.62,7.27-1.02,14.36.56,21.38,2.05,9.15,2.23,17.73-.57,27.13-2.26,7.58.26,16.45-.74,24.57-1.63,13.3-5.19,26.09-17.11,34.44-1.73,1.21-2.42,2.7-2.08,4.59.44,2.4,2.63,2.56,4.28,2.22,7.64-1.55,15.34,2.81,22.98-.37.74-.31,2.6.72,3.13,1.61.87,1.45-.88,2.4-1.79,2.83-1.3.61-2.98.81-4.43.64-11.56-1.32-23.17-1.27-34.78-1.49-22.52-.44-45.03-2.1-67.57-.96-6.71.34-13.36-.15-20.04-.72-7.07-.6-13.92-1.24-21.26.69-6.38,1.68-13.65,1.58-20.69.26-7.51-1.4-15.23-2.43-22.92-.2-8.21,2.38-16.36.12-24.46-.96-10.92-1.46-21.94-.51-32.66.43-5.33.47-13.54,1.72-15.97,9.89-1.72,5.81-4.88,11.25-6.14,17.12-3.83,17.94-18.31,25.66-32.06,33.76-12.95,7.63-27.69,10.6-42.25,13.74-1.85.4-4.64-.23-4.37,2.96.26,3.14,2.84,3.22,5.23,3.22,13.07-.01,26.22-.9,39.2.14,16.84,1.35,33.14-4.78,49.91-2.52,6.47.87,12.92,1.89,20.91,3.07-4.6,3.97-9.08,4.44-12.43,3.97-14.42-2.05-28.86-1.36-43.2-.54-7.59.43-15.23,3.03-22.87,1.72-22.98-3.94-46.11-1.37-69.14-2.4-8.12-.36-11.57,3.83-14.14,9.75-4.05,9.34-7.36,19-11.29,28.4-9.45,22.64-22.43,42.93-39.64,60.58-8.73,8.95-18.88,15.8-29.39,22.29-4.35,2.69-8.75,4.48-14.09,5.29-5.52.84-10.48,4.93-15.88,7.11-10.59,4.27-21.57,2.65-32.6,2.31-8.05-.25-16.04,1.65-24.03-1.57-17.2-6.94-33.62-14.7-41.74-33-.48-1.08-.32-2.44-.57-4.69,3.45,1.41,6.3,3.16,9.5,2.23-.99,6.12,4.65,13.53,10.51,13.65.81.02,1.8-.77,2.37-1.46.27-.33-.12-1.85-.41-1.91-5.88-1.3-7.48-7.97-12.69-10.06-2.61-6.53-10.77-5.83-14.43-11.11-1.57-2.27-4.26-3.61-5.2-6.55-1.61-5.05-3.61-9.38-10.61-8.11-3.46.63-3.43-2.47-2.08-4.74,2.29-3.85,3.96-8.3,8.68-10.2,2.05.73,1.43,2.48,1.26,3.89-.33,2.65-5.3,5.05-2.63,7.02,3.18,2.34,7.57,3.8,12.35,2.77,5.44-1.17,9.27-5.17,14.3-7.02,2.57-.94,4.94-2.45,6.78.28,1.59,2.36,1.14,4.94-1.83,6.49,1.62,1.96,4.35.24,5.62,1.64,7.45,8.2,14.44,3.78,21.52-.5,1.93-1.16,2.26-3.25,1.46-4.66-1.55-2.72-3.96-4.99-7.54-3.59-2.63,1.02-5.02,2.67-8.03,2.4-3.75-.33-7.47-.68-6.89-6.02,7.9-1.69,15.94-.58,23.92-.99,4.23-.22,8.44.32,10.26-4.78-7.48-2.22-14.65-1.19-21.8-.53-1.98.18-4.78-1.11-3.11-2.04,5.19-2.89,7.94-10.27,13.61-10.31,8.88-.07,13.7-5.63,19.57-10.28,1.19-.94,3.1-1.18,2.03-3.2-.71-1.34-2.08-.97-3.42-.66-1.99.45-4.47-.05-6.02.96-7.09,4.62-12.21,1.96-17.3-3.49-3.3-3.53-7.03-4.35-11.28-.37-5.51,5.18-12.09,8.91-19.61,11.14,1.03,3.23,4.62,1.34,5.53,3.32.06,3.96-7.94,5.14-2.97,10.28-1.5-1.76-4.81-1.32-5.41-3.9-.62-2.63-.83-5.46-4.48-4.61-2.54.59-4.21,2.7-5.18,5.11-1.2,2.97,1.03,4.47,2.72,6.44,4.15,4.81,8.43,4.54,13.13,1.11.07,2.09.87,3.61,3.24,3.16,3.46-.65,5.16,1.53,6.85,3.87-6.77-.81-13.44-2.49-19.91,2-3.28,2.27-7.47.34-12.26,0,8.37-8.32,2.13-13.28-3.66-17.73-11.69-9-14.67-22.46-18.64-35.34-1.87-6.09-9.55-10.15-14.96-6.89-1.97,1.19-1.27,2.24-.14,3.6,2.09,2.52,4.05,5.14,5.98,7.78.78,1.07,2.95,2.18,1.02,3.61-1.31.97-3.41,1.45-4.79-.49-.28-.39-.26-.99-.41-1.48-3.38-11.06-14.06-11.86-22.44-15.7-5.05-2.31-9.57.98-13.6,3.45-3.63,2.23-7.24,2.34-11.1,2.18-2.05-.08-3.38-1.07-3.63-3.24-.29-2.57,1.57-3.01,3.38-3.25,6.65-.9,13.07-5.13,19.15-4.88,10.29.43,20.57-2.51,30.81.22,8.67,2.31,10.42-.37,9.17-9.17-.95-6.7-4.85-12.18-5.63-18.75-.38-3.19-2.89-5.14-6.81-7.83,11.55.6,9.28-7.4,10.6-13.07,7.58-3.46,5.24-12.02,8.97-17.45,2.9-1.01,5.84-1.9,8.68-3.05,10.67-4.3,21.02-9.92,33.23-7.33,1.63.35,4.1-.69,4.33,1.87.23,2.56-1.86,3.43-4.14,3.44-1.28,0-2.56-.27-3.84-.3-5.59-.12-12.73,1.3-14.64,5.04-2.95,5.77-5.77,7.86-11.9,8.47-1.35.13-8.47,1.55-7.37,6.71.84,3.96,4.66,1.37,7.18,1.53-3,4.46-7.99,6.6-11.84,10.06-1.63,1.47-2.48,2.47-1.12,4.31,1.54,2.08,3.16.88,4.6-.16,2.87-2.06,4.36-5.64,7.89-7.04,5.19-2.04,3.23-4.58.35-7.09-.19-.43-.38-.86-.57-1.28,8.19-1.07,16.29-7.68,24.18-3.81,5.98,2.94,11.9,1.35,17.56,3.34,2.72.95,6.29.5,8.29-1.67,1.82-1.97-1.49-3.96-1.57-6.17,5.62,1.49,6.77,5.36,5.33,10.32-1.13,3.91,2.16,4.8,4.22,5.98,2.4,1.36,4.71-1.89,4.44-2.81-1.52-5.19,4.42-9.47,1.47-14.61,2.73,2.13,5.55,4.17,8.17,6.43,1.63,1.4,3.04,2.38,3.93-.43,1.9-6.05-3.94-7.35-6.94-9.57-3.14-2.32-4.94.6-4.94,4.06-4.87-7.02-9.67-10.2-14.32.21-.13.3-.86.34-1.3.5-4.08-.49-6.91,6.07-11.59,2.63,3.16-4.2,8.19-5.38,8.03-12.76-.16-7.49,8.11-6.32,13.88-6.17.44,4.06,1.94,5.94,6.77,6.3,12.81.96,24.4,15.6,23.25,28.24-.25,2.71-1.14,3.61-4.39,4.61-6.38,1.96-12.3,5.81-17.45,10.91,3.21,2.41,8.13,1.39,6.51,7.55-.53,2,5.76,5.19,5.75,9.82,0,1.57-.11,3.13-1.62,4.09-7.36,4.67-2.77,10.38-.19,14.53,2.08,3.35,3.18,5.82.75,8.64-2.54,2.95-5.66,2.36-8.98.44-4.32-2.49-8.92-4.21-13.37.15-.9.88-2.37,1.34-1.9,2.91.47,1.59,2.01,1.39,3.22,1.32,7.49-.47,14.93-.1,21.98,2.54,5.88,2.21,7.04-6,12.4-5.18.77.12.93-3.17-1.65-3.64-1.37-.25-3.17.73-4.25-2.23,2.61.43,1.7-5.56,6.05-2.36,3.33,2.45,5.64.72,6.29-2.43.81-3.94-2.46-2.8-4.57-2.68-2.02.11-3.61-.28-3.96-2.62-.37-2.47.97-3.3,3.14-3.1,5.85.54,5.72-3.35,4.66-6.95-1.14-3.88-4.4-5.09-7.88-2.97-2.17,1.32-3.42,2.13-4.59-.78-1.24-3.09-1.96-7,1.32-8.19,4.35-1.58.86,5.05,4.02,5.26,9.88-.18,3.86-11.74,10.56-14.25-.25-.45-.43-.95-.75-1.34-4.37-5.45-2.83-10.24,1.64-14.11-1.06-3.91-6.8.66-7.02-5.55-.24-6.63,5.39-4.71,8.01-6.77-1.64-3.55-5.89-.77-7.22-3.8.84-3.7,3.87-4.47,6.71-5.72,1.6-.7,3.17-2.42,1.69-4.3-1.03-1.31-3.22-1.04-4.13.21-3.52,4.83-6,1.15-9.57-.16-4.81-1.77-5.38-9.08-11.37-8.13-6.74,1.06-13.39-.46-20.08-.03,8.65-2.9,16.84-9.64,26.65-2.92.97.66,3.22.3,4.4-.39,3.02-1.75,6.17-1.77,9.48-2.26,5.69-.84,11.59-1.97,16.59-5.29,1.92-1.28,2.64-3.16,1.4-5.36-.53-.95-1.15-1.14-2.43-.69-12.57,4.45-25.03,9.97-38.84,4.97-.68-.25-1.56-.13-2.3.04-8.35,1.85-16.88,1.37-25.33,1.92-16.15,1.06-32.11-.47-48.51-3.16,2.12-3.77,4.82-3.35,7.67-3.12,24.45,1.96,48.91,1.14,73.37.38,1.95-.06,4.36.33,5.1-2.39.56-2.05-.72-3.32-2.04-4.66-1.64-1.65-3.41-2.65-5.37-.96-1.92,1.65-4.01,1.93-6.39,2.13-24.14,2.06-48.29,1.21-72.44.57-2.24-.06-9.28,8.14-8.93,10.4.24,1.55,1.26,2.12,2.65,2.26,1.79.19,3.65.12,5.36.58,1.97.52,4.65,1.43,4.4,3.65-.36,3.13-3.12,1.63-4.99,1.36-2.28-.33-4.63-.56-6.79-1.3-2.84-.97-5.81-2.02-7.45,1.24-1.54,3.06-1.76,6.6,1.01,9.35,1.25,1.24,2.96,2,4.46,2.98-2.24-.08-5.71-.53-5.92,1.77-.5,5.38-4.84,9.97-3.03,15.7-6.41-9.97-2.79-20.71-2.42-31.21l-.06.1Zm484.2-38.82c11.55-2.57,19.08-10.27,17.47-19.66-3.04,5.13-6.57,8.12-11.14,10.41-2.88,1.45-6.08,5.03-6.13,9.45-4.45-2.81-6.99.6-9.52,3.2-.94.97-.08,2.62,1.5,2.57,3.95-.12,7.86-.54,7.81-5.97Zm67.24-68.7l.43.32c-1.12-4.51-5.01-6.62-8.5-8.4-6.04-3.07-11.19,1.01-8.37,6.17,2.29,4.2-7.46,3.97-3.33,8.21,5.18,5.32,3.89,12.56,6.66,18.5,1.76,3.78,1.26,7.9-.61,11.05-2.36,3.98-1.28,7.71,1.19,9.6,3.01,2.31,7.03.43,9.48-2.49,4.96-5.9,9.62-12.06,14.85-18.68-2.99-.67-5.15-1.16-7.31-1.65l.19.17c4.55-4.81,7.57-11.64,15.83-11.49,1.31.02,3.32-.89,2.56-2.9-.37-.98-2.46-2.37-2.76-2.16-8.76,6.25-11.94-2.22-16.79-6.23,3.24.88,7.36-1.62,9.74,2.65.59,1.05,1.8.81,2.74.29,1.57-.87,1.19-2.26.37-3.23-3.06-3.64-2.4-5.87,2.28-6.93,1.6-.36,3.09-1.29,2.65-3.11-.59-2.44-2.95-1.92-4.5-1.56-2.93.67-5.67,2.26-8.61,2.78-8.13,1.44-8.31,1.64-4.25,9.27-1.32-.06-2.64-.13-3.96-.19Zm-240.82-163.53c9.88,7.46,20.72,12.6,33.32,13.71-9.39-12-22.5-17.37-33.14-13.63-5.79,1.24-1.43,6.65-4.03,9.67-3.75,4.35-1.96,11.88,2.64,15.62,1.26,1.03,2.72,2,4.16,1.26,2.06-1.06,1.58-3.52.63-4.67-2.36-2.88-3.71-7.41-1.95-9.11,5.82-5.63.79-8.87-1.64-12.86Zm-179.66,225.22c-1.33,4.25,2.82,4.1,4.7,5.67,1.03.86,21.73-6.6,22.41-7.94.32-.63.18-1.51.25-2.27,5.72,1.84,7.27,5.44,4.18,10.5,6-.75,14.09,6.56,16.23-5.26,6.76,9.2,16.17,13.1,25.01,17.82-1.67,3.72,4.1,2.91,3.95,6.29-10.1-1.15-20.28-3.26-26.25,7.8,8.89-2.08,17.88-1.94,26.64-1.4,7.03.43,12.9.2,17.14-6.07-2.21,10.57,7.39,3.99,10.37,7.09,1.05,1.1,3.25.51,2.9-.56-1.21-3.77-5.14-4.83-8.26-6.45-1.35-.7-3.43.01-5.17.08-5.54-7.52-13.82-6.04-21.5-6.56.32-3.44-.76-5.71-3.92-7.87-8.92-6.11-17.56-12.75-26.35-18.92-4.41-3.1-11.95-12.06-19.74-2.48-.84,1.03-3.33,2.33-4.44-.29-.86-2.03.39-3.28,2.26-4.18,1.49-.71,4.24-.47,3.97-2.84-.34-2.96-3.2-1.67-5.03-2.09-1-.23-1.99-.54-3.01-.66-12.43-1.48-17.73-18.06-32.21-15.21-.16.03-.54-.27-.58-.47-1.41-7.97-10.73-5.83-14.38-11.16-.82-1.2-5.03-1.62-4.93.82.14,3.69-1.65,7.27-.51,10.73.33,1,2.98.8,3.17-1.46.19-2.26.48-4.37,3.47-3.66,2.87.69,3.19,2.96,2.74,5.5-7.94,4.68-.44,12.55-3.68,18.32-.52.93,1.64,1.61,2.98,1.35,3.49-.66,4.16-2.77,3.93-6.16-.32-4.86-4.32-8.7-3.44-13.77,5.06.05,8.09,2.22,8.66,7.59.25,2.33,1.07,6.17,4.48,2.96,5.94-5.59,9.92-2.09,14.35,1.89,1.83,1.64,3.58,3.62,6.58,3.56,4.37-.09,3.74,1.89,1.88,4.73-1.36,2.08-5.4,3.93-1.55,7.53,2.55-1.85,2.65-7.92,6.69-5.81,4.55,2.38-3.27,3.38-1.75,6.35,4.83,2.24,10.8-1.33,15.34,2.7-9.59-.47-18.88.92-27.81,4.52q.9-5.84-5.98-4.24c-.73.17-1.54.07-2.3-.03-8.82-1.26-17.61-2.07-26.53-.51-2.87.5-6.03.52-8.97-1.15-1.91-1.09-4.73-2.03-5.22,1.73-.36,2.77.96,4.3,4.02,4.14,15.07-.8,30.15,2.02,45.19-.17Zm490.77-125c.05-1.27.23-2.54.12-3.79-.16-1.86,3.67-3.35.87-5.14-2.14-1.36-3.86.6-5.88,1.81-3.26,1.96-2.77,4.41-2.67,7.14-3.07-1.04-4.68-3.64-6.7-5.91-1.19-1.34-3.54-1.59-4.84,0-1.56,1.9,1.15,2.16,1.66,3.24.95,1.98,5.28,3.55,2.16,6.08-1.98,1.62-5.57,1.51-7.29-1.69-1.48-2.75-3.33-5.14-6.44-2.78-3.9,2.97-.27,5.15,1.49,7.34.66.81,1.41,1.48.46,3.83-10.41-5.45-21.34-3-32.47-.78,9.92-3.44,18.83-8.17,25.86-15.27,4.88-4.92,12.98-7.28,13.87-15.74,9.46-4.98,16.57-11.58,17.72-23.11.64-6.44,6.51-12.37,1.8-19.39-.22-.32.6-1.3.88-2,3.75-9.19,2.3-15.01-5.4-20.64-2.51-1.84-6.11-3.66-8-.38-1.25,2.17-2.14,6.03,2.07,8.52,2.52,1.49,6.36,3.45,5.75,9.08-4.51-6.05-10.07-7.06-16.1-6.81-4.85.2-9.7.36-14.55.54-.22-2.35,1.31-3.04,3.21-3.46,2.32-.52,3.5-1.34.76-3.14-.99-.65-1.18-2.79-2.72-2.16-1.87.77-3.16,2.44-3.73,4.48-.66,2.38-.22,4.08,2.74,4.04,2.01,5.36,5.04,7.18,10.6,4,3.08-1.76,9.23-2.65,9.74.2,1,5.62,5.35,8.87,6.89,14.57-2.91-3.88-6.89-2.84-10.43-3.47-5.57-.98-7.03,1.07-5.79,6.42,1.7,7.31,3.67,14.3,11.5,18.74-5.86,2.33-6.89-1.75-8.81-3.57-3.2-3.03-6.09-5.56-10.57-2.53-1.97.59-5.1-4.22-5.89.75-.83,5.21-4.35,5.26-8.29,5.09,1.03,2.86,2.62,5.61,4.99,4.17,3.88-2.36,8.96-4.26,8.99-10.23,1.96.5,3.47,1.77,3.07,3.75-.92,4.47,1.89,7.48,3.68,10.93-5.05-3.02-8.6-2.53-10.26,3.88-.63,2.43-2.27,4.49-5.33,4.71-1.6.11-4.13-.64-4.02,2.17.07,2.02.89,3.94,3.55,4.27,2.7.33,3.69,2.78,2.54,4.53-2.23,3.39-3.09-.92-4.47-1.56-2.93-1.37-5.98-5.05-8.8-2.07-2.62,2.78,2.98,3.78,3.34,6.42.06.41-.3.88-.5,1.44-3.37.7-3.76-2.84-5.72-4.14-2.36-1.56-3.98-1.7-5.43,1.29-4.3,8.86-6.59,18.99-15.43,25.09-.52.36-.98,1.43-.84,2.03,1.84,8.17-3.48,12.89-8.22,18.16-3,3.33-2.65,7.99-.16,11.27,2.63,3.48,17.54,1.13,21.01-2.71l-.24.2c6.3,2.91,10.28-3.86,16.79-3.98,7.22-.13,16.42-6.56,20.69-12.96,2.85-4.28,8.61-7.63,8.73-14.3,1.75,3.74,2.95,7.54,7.86,6.6-1.43,4.44-5.83,6-8.9,8.77-2.41,2.17-6.64,2.4-6.69,6.88-5.77.2-8.29,6.13-13.48,7.55-4.98,1.36-6.67,3.5-2.38,8.45,2.49,2.88,2.94,3.39,6.25,1.14,6.34-4.3,8.86-10.14,9.43-17.3,6.79,2.17,11.43-1.32,16.25-5.52,10.85-9.46,12.99-23.53,19.39-35.32.61-1.12.2-2.71-1.07-3.35-1.28-.66-2.8-.18-3.04,1.3-.5,3.07-2.01,4.58-5.16,4.31Zm-272.61,201.4c-4.04-1.5-5.35,1.99-7.23,4.13-4.18,4.77-7.26,12.06-12.43,14.05-9.33,3.6-13.58,13.73-23.39,15.96-.6.14-1.21,2.23-.03,3.09,6.21-1.23,11.83-3.19,16-8.1,2.07-2.43,4.69-3.75,8.14-2.7,3.71,1.13,6.08-2.84,6.27-4.29.66-4.87,4.68-7.02,6.68-10.59,2.11-3.78,6-6.79,5.85-11.71,3.77.62,6.07-2.03,7.07-4.64,2.46-6.42,7.09-12.08,7.11-19.4,0-1.62,3.94-3.22.23-4.81-2.69-1.15-3.76,1.2-4.36,3.09-2.83,8.82-10.05,15.97-9.91,25.91ZM549.45,30.24c-5.64-4.28-12.47-7.92-6.96-17.01,1-1.65.21-4.55-.16-6.81-.42-2.58-2.77-2.92-4.8-2.89-1.98.03-4.22.13-5.05,2.66-.51,1.57-.75,3.09,1.09,3.92,1.32.59,3.44.51,2.56,2.81-.9,2.32-3.34,1.86-4.65,1.16-5.92-3.16-9.45,2.48-14.16,3.59-1.41.33-2.11,2.28-1.71,3.92.47,1.94,2.27,1.66,3.75,1.94,3.7.7,5.98-3.16,9.77-2.8,2.27.22,5.61-2.65,6.73.35.97,2.57,1.56,6.83-2.98,8.28-.84-2.94-3.27-2.81-5.58-2.85-6.89-.12-13.78-.22-20.68-.32.85-3.23-1.27-5.26-3-7.47-1.11-1.41-2.55-1.51-4.13-1.27-1.28.19-1.6,1.21-1.65,2.23-.1,1.84.91,3.13,2.72,2.87,3.12-.46,3.2,4.11,6.25,3.48-.37,1.37.08,2.25,1.15,3.3,8.85,8.74,17.68,17.51,26.32,26.46,6.74,6.99,12.37,14.73,14.49,24.51-2.6.58-5.76,1.13-6.03-2.45-.47-6.25-5.78-9.05-8.79-13.4-6.79-9.82-17.34-16.52-23.14-27.3-1.22-2.27-4.08-2.58-6.09-1.29-1.77,1.14-.24,2.55.95,3.62,13.43,12.02,21.55,27.97,31.75,42.41,3.72,5.26,6.05,11.59,11.33,15.76,1.78,1.41,3.98,2.31,5.43.63,1.57-1.81,1.63-4.29-1.23-5.74-5.4-2.74-4.91-7.64-4.44-12.5,7.13,1.01,6.47,8.08,9.37,12.33,1.32,1.93,3.97,3.84,4.1,2.05.43-6.19,8.21-5.93,8.83-11.73.35-3.22,4.02-2.45,6.45-2.44,1.6,0,3.69,1.29,2.35,2.78-3.01,3.34,2.16,9.15-4.11,11.58-1.78.69-2.05,4.39,1.84,4.58,2.84.14,6.29-2.47,7.66,2.92.26,1.01,8-.03,6.81-2.66-3.01-6.63-2.6-13.03-2.17-19.68,3.01.84,6.78.12,7.84,4.63.39,1.63,3.47,1.95,3.6.82.5-4.46,7.97-6.92,5.41-10.21-3.15-4.05-8.76-1.08-12.92,1.28-1.47.84-2.54,2.38-3.8,3.59-5.88.27-6.3-.07-4.37-2.41,3.59-4.38,1.17-5.63-2.76-6.12-4.32-.54-6.93-2.64-7.4-7-.69-6.52-4.96-11.83-9.12-15.32-3.76-3.16-5.25-5.16-4.63-9.71.33-2.43-.6-5.03-.94-7.53,8.26,6.45,11.22,16.98,18.9,24.12,4.57,4.24,7.66,9.85,13.65,13.01,2.28,1.2,4.04,2.65,5.71.79,1.91-2.13-.09-3.99-1.71-5.83-6.23-7.1-10.19-15.62-14.56-23.89-2.04-3.86-4.82-6.6-9.36-8.35-3.75-1.44-8.67-1.27-11.27-5.52-.91-1.49-2.05-4.55-4.46-2.24-1.68,1.6.22,3.79,1.44,5.18.83.94,2.05,1.44,1.86,2.97-3.89,6.47-8.16,3.16-12.4.48.32-.78.63-1.57.9-2.41,2.66-2.69,2.1-7.07,5.22-9.66,1.08-.9.89-3-.74-3.98-1.05-.63-2.4-1.38-3.48-1.21-1.88.29-2.24,2.13-1.73,3.63,1.27,3.75-.96,7.72.91,11.38Zm-50.2,229.33c3.63-2.83,2.36-10.01,9.09-10.16,1.76-.04,3.89-.24,3.52-2.92-.32-2.31-1.79-3.42-4.12-3.89-2.73-.56-5.38.94-8.26-.69-6.25-3.53-14.09-1.48-19.31,4.06-5.19,5.51-.74,9.14,2.18,13.15-1.5-.31-3.48-.12-4.42-1.01-6.76-6.45-10-1.56-12.98,3.89-.77,1.42-1.77,2.4-2.93,3.44-2.24,2-3.4,4.53-2.53,7.6.53,1.87,2.06,2.14,3.68,1.89,2.92-.46,5.72-1.37,6.11-4.83.34-2.96,1.43-3.33,3.98-2.08,2.53,1.23,2.84,4.38,1.72,4.98-5.43,2.91-6.16,10.69-13.27,11.86-6.08,1-7.48,4.74-3.88,9.97-9.41,5.34-9.92,6.84-5.1,15.56.59,1.07.4,1.94-.15,2.82-2.62,4.2,1.48,7.63,1.44,11.66-.03,2.55,3.57,3.35,6.17,3.62,1.83.18,2.68-1.32,3.2-2.81.91-2.59-.11-4.48-2.34-5.88-.99-.62-2.64-.43-2.81-2.85,4.14-.48,7.81-1.35,12.25.78,7.05,3.38,4.27-4.91,6.87-7.24,3.35-3.01-.82-3.68-3.28-4.13l.22.24c.96-1.89-2.72-4.62.93-5.92,1.89-.67,5.25-1.42,5.74.04,1.09,3.24,5,6.36,1.24,10.57-1.53,1.71-5.16,3.42-2.6,6.96,13.53-8.95,13.66-10.06,2.82-23.09,4.37-1.29,9,1.21,11.46,5.87.92,1.74-.79,6.12,2.75,4.93,3.26-1.09,1.06-5.12.41-7.46-.52-1.88-2.99-3.24-4.62-4.8-2.33-2.24-4.88-4.35-4.87-7.97,3.34,2.59,7.21,2.09,11.02,1.88,1.74-.1,3.99.24,4.35-2.09.45-2.97-1.52-5.46-3.18-7.47-1.55-1.88-3.57,0-5.21,1.26-2.53,1.95-3.16,5.88-6.89,6.55-10.17,2.37-18.71,10.15-29.88,8.98,1.53-3.72,5.53-4.32,8.32-6.41,8.1-6.07,20.46-3.92,26.79-13.7.33-.5,1.95-.18,2.97-.22,4.49-.19,8.26.97,11.54,4.44,2.9,3.07,6.18,1.8,8.69-1.02,2.47-2.78,2.03-6.07-.37-8.34-2.73-2.58-5.43-2.69-6.47,2.09-.42,1.95-2.04.45-3.09.15-7.25-2.04-14.34-2.65-20.85,2.79-1.68-4.78,1.17-5.93,3.83-7.99,3.01-2.33,7.1-.13,10.01-3.04-3.2-2.86-6.66-1.18-9.74-1.74-2.48-.45-6.63,2.23-7.29-2.99,5.75-1.01,11.48-1.59,17.08.75,9.31,4.65,19.94,3.12,23.34-3.54,3.51,2.54,7.62,4.72,1.63,9.01-.68.49-1.14,1.74-1.15,2.64-.22,11.86-4.62,20.05-17.73,21.24-2.07.19-5.71.62-5.1,3.44.81,3.76,4.3.85,6.56,1.18.7.1,1.55-.2,2.22-.54,10.95-5.58,19.75-13.13,20.87-26.23.37-4.34,3.54-9.55,2.56-11.79-2.74-6.26.53-6.54,5.19-7.24-5.79-.23-4.22-9.87-11.1-7.61,1.02-1.89.45-4.64-1.25-4.17-7.37,2.02-13.77-3.29-20.88-2.14-1.62.26-4.06-.65-4.33,1.92-.31,2.92,1.87,4.1,4.4,4.13,5.07.06,9.58.97,12.32,5.9.57,1.03,1.59,2.24,3.07.94.72-.64,1.83-1.3,1.96-2.08.76-4.56.68-4.57,4.9-4.69.96,8.84-4.98,15.72-14.46,15.36-5.24-.2-9.23,1.24-12.99,4.22Zm-349.3,9.98c.47-7.85-.17-8.33-10.71-6.82,4.62,2.01,2.24,12.04,10.93,6.6.81.63,2.34,1.28,2.32,1.88-.19,4.63.89,7.42,6.46,6.33,1.09-.21,2.57,1.45,3.83,2.31,3.55,2.45,6.77,5.8,10.69,7.15,3.7,1.27,6.59,1.46,5.69,6.55-.41,2.32,3.54,4.07,3.8,2.51,1.48-8.76,6.52-1.74,8.76-1.59,4.22.27,6.69,3.61,1.9,7.74,2.04.92,3.96,1.56,5.64,2.59,2.55,1.55,5.05,2.23,7.81.68-3.38-3.25,2.61-8.07-1.14-10.5-6.76-4.38-11.27-11.29-19.12-14.66-7.42-3.18-13.6-8.83-22.69-7.74-1.59.19-6.21.49-7.54-3.19,2.03-2.19,5.33-.21,7.24-2.86-6.03-4.05-9.65.82-13.85,3.03ZM484.97,74.09c-3.05-4.21-5.78-8.7-9.2-12.58-8.01-9.07-26.22-9.86-36.1-2.66-4.14,3.02-5.92,9.23-12.27,9.23.08-5.21-3.42-9.06-7.46-9.48-5-.52-6.43-.59-2.86-5.07,1.13-1.42,1.93-3.41.13-4.8-1.49-1.15-3.75-1.24-4.93.33-2.58,3.42-6.02,2.09-9.21,2.19-10.38.34-21.41-1.13-30.86,2.88-15.13,6.42-29.18,15.34-44.04,22.46-3.92,1.88-3.03,3.81-2.85,6.52.18,2.69,2.17,3.41,4.14,3.77,4.31.8.59-4.79,3.73-5.03,2.86.95,3.91,6.01,7.31,4.33,6.31-3.12,13.74-1.77,19.02-1.05,14.61,2.01,28.8,7.8,33.86,24.39,1.69,5.56,4.25,7.28,9.04,3.08,1.76-1.55,3.88-.95,4.77.43,1.61,2.49-.98,2.76-2.57,3.34-1.73.63-2.39,2.15-2.29,3.66.21,3.43,11.84,14.38,15.53,14.71,3.01.27,6.2,1.97,8.52,1.92,5.43-.1,4.69,6.13,7.91,6.49,16.42,1.87,32.64,2.31,45.46-11.11,6.63-6.94,15.61-7.64,23.76-1.99,1.43.99,2.84.9,4.31,1.2,4.56.91,7.69-.64,9.32-5.05,4.41,2.5,8.7,3.16,12.64-.91,1.02-.09,2.07-.06,3.06-.29,2.2-.49,5.52,1.65,6.25-2.35.29-1.56-.41-2.79-2.26-3.46-3.56-1.28-4.3,1.9-5.95,3.51-.62.6-.58,1.88-.85,2.85-5.35,1.77-7.91-5.42-13.37-3.96-14.97,4-21.61-8.31-30.53-16.03-1.79-1.55-1.62-4.17-.13-5.53,1.57-1.44,3.5.31,4.56,1.57,4.57,5.43,8.89,3.97,12.99-.36,1.32-1.4,2.66-2.29,4.49-2.68,1.59-.34,4.21.38,4.03-2.33-.18-2.69-2.96-2.39-4.82-2.95-1.78-.54-3.55-.23-5.22.68-.95.52-1.84,2.4-3.03.75-.66-.91-.86-2.5-.6-3.63.33-1.49,1.96-1.67,3.19-1.37,6.09,1.51,11.58-.5,17.1-2.71,1.9,2.93,4.3,3.29,7.2,1.49,2.78-1.73,4.74-3.88,4.25-7.44-.21-1.49-.07-3.33-2.11-3.6-1.68-.23-3.12.64-3.67,2.22-1.12,3.22-2.23,6.36-5.88,7.58.86-4.19,3.19-8.76-4.07-9.91-2.98-.47-.27-2.52-.37-3.65-.45-4.95,8.44-6.28,4.2-12.54-10.62-15.67-23.02-29.49-41-36.55-5.72-2.25-11.75-7.2-20.75-2.76,18.78,8.52,29.54,24.99,47.31,33.64-5.65,4.2-8.52.26-11.26-1.09-14.53-7.1-26.67-18.54-42.41-23.56-.44-.14-.72-.97-1.12-1.02-7.09-.77-14.2-1.5-20.68,2.6-4.46,2.82-3.4,7.99-2.94,11.37.37,2.67,4.92-1.1,6.37-.89,5.7.81,12.52-3.36,17.12,2.9,1.28,1.75,2.94,2.13,4.69,2.1,11.33-.21,19.35,6.5,27.85,12.65,6.08,4.39,7.73,16.67,19.74,11.35,1.65-.73,2.93,2.62,2.56,4.77-.38,2.17.04,5.17-2.71,5.96-3.35.97-2.58-2.11-3.15-3.87-.65-2.02-2.22-1.74-3.77-1.22-2.63.89-5.09-.11-7.59-.66-.5-.93-1-1.85-1.51-2.78ZM144.16,354.38c-2.07,1.36-4.65-3.33-5.99-.05-1.85,4.52-3.4,2.77-6.09.99-1.51-1-3.99-.73-6.03-.7-5.89.07-11.68.25-16.93-3.31-4.27-2.89-8.42-2.28-13.59-.8-5.15,1.48-10.47,6.91-16.97,2.98,4.26-6.26,13.38-3.66,16.99-10.49-2.24-.89-3.82.22-5.53.46-9.6,1.35-18.1,6.18-27.44,8.31-1.53.35-4.21-.9-4.06,2.02.11,2.05,1.39,4.02,4.01,3.83,5.76-.41,10.94,2.32,16.4,2.99,19.91,2.43,39.91,3.84,60,3.14,4.58-.16,8.81-.87,13.33-2.38,5.31-1.77,11.67-.55,17.56-.3,2.28.1,1.24,1.71,1.08,3.31-.27,2.61,3.02,3.77,7.6,2.95,1.38-.25,3.34.08,3.02-2.38-.89-6.82-.89-6.79,5.63-7.04,1.79-.07,4.32.29,5.21-.71,1.96-2.21,7.59-1.27,6.05-6.4-1.54-5.14-4.41-.96-6.71-.72-.5.05-1.07.24-1.51.09-14.68-5.15-29.04-.25-43.5,1.36-1.87.21-2.66,1.31-2.72,3.07l.21-.22Zm63.24,214.25c-6.11-.92-11.96-1.13-15.25,5.61l.18-.25c-6.7,1.35-13.56,1.09-20.32,2.91-6.61,1.78-14.15,2.57-19.93-2.66-3.03-2.74-6.14-3.35-9.69-3.05-6.17.51-3.64-2.69-1.86-5.41-9.73.35-10.56,1.42-6.93,8.34-2.65,1.48-6.17-1.17-8.67,1.8,1.39,4.03,4.46,5.12,8.26,5.04l-.17-.19c.68,3.52,3.26,3.2,5.95,3.16,2.57-.04,5.65-1.54,7.48,1.6-.37,1.86-1.72,1.92-2.97,2.18-2.51.5-4,2.65-2.92,4.45,1.61,2.67,3.1-.22,4.81-.9,2.69-1.07,4.79-3.81,8.37-2.86,10.19,2.72,19.94,5.03,31.14,2.36,8.3-1.97,15.39-5.84,22.98-8.81,8.64-3.38,19.09-5.02,22.08-16.31,5.74.37,9.13-2.44,11.85-7.42,2.08-3.81,6.67-5.3,9.48-6.59,2.54-3.72-8.05-6.64.03-8.15,7.23-1.36,9-3.35,5.95-10.06,8.26,2.64,10.07,1.32,10.86-6.97l-.15.15c4.2-2.91,9.99-5.24,2.47-13.32,7.88,2.82,7.15-4.44,8.07-4.75,10.7-3.57,4.15-5.8-.18-8.57-.58-.37-.45-1.85-.67-2.82,3.34-.33,8.08,3.3,9.68-1.03,1.19-3.22-4.26-3.48-6.42-5.45-.26-.24-.11-.92-.17-1.62,3.29-2.41,8.07.69,11.35-2.49-1.55-2.43-5.37-3.46-4.85-5.96.74-3.56,4.39-.96,6.65-1.65.97-.3,2.13-.27,2.41-1.48.39-1.7-1.06-1.93-2.1-2.65-1.59-1.11-3.68-2.04-3.37-4.61,5.73.96,3.45-5.21,6.11-6.87,5.44-3.4.51-7.34-.86-8.44-2.64-2.12-7.42-1.85-10.2-.21-3.56,2.1.65,3.87,1.73,5.83,2.85,5.17-.41,11.2-6.25,11.7-1.44.12-3.32-.88-3.84,1.17-.57,2.27,1.5,2.08,2.93,2.47,3,.82,4.51,4.89,2.42,5.12-9.21,1-2.66,10.54-7.91,13.33-.32.17,1.39,2.45,2.94,3-3.14-.63-6.28-1.26-10.06-2.03.64,1.54.74,2.37,1.21,2.83,3.01,2.94,10.19,5.99-.7,7.93-2.81.5-4.7,3.69-5.41,6.06-3.01,10.06-8.02,18.52-16.56,24.88-1.72,1.28-3.37,3.77-3.52,5.82-.66,9.28-10.19,9.72-14.62,15.18-.47.58-2.44.21-3.62-.09-6.85-1.73-16.19,4.14-17.45,11.04l.26-.26Zm-98.77-93.71c-.28,13.39-12.71,7.39-18.89,11.15.89,3.72,5.4.73,6.04,4.63-3.26,1.62-6.13,2.37-9.26-1-2.3-2.48-5.8-4.4-8.89-2.04-4.18,3.2,1.09,4.25,2.05,6.35.5,1.09.53,2.51.39,3.75-.27,2.46.89,2.96,3.09,3.25,16.01,2.09,29.95-1,42.21-12.75,5.99-5.74,7.44-10.87,5.32-18.12-2.47-8.47.63-11.95,9.63-11,.99.1,2.05.97,2.9.75,3.7-.92,8.24-2.61,8.78-6.01.43-2.71-3.91-4.28-7.31-3.66-6.27,1.14-12.19-.86-18.3-1.53q2.45-10.12-7.2-9.07c1.77-2.12,3.28-4.09,4.96-5.91,5.75-6.22,6.2-8.52-1.37-12.19-9.82-4.76-20.47-8.31-31.89-5.88-.28.06-.42.76-.71,1.34,2.23,2.71,5.21.65,7.74,1.16,1.53.31,4.66-1.4,3.84,2.59-3.18,1.98-6.42-.02-9.64.13-1.34.06-2.6.18-3.04,1.66-.32,1.09.3,2.5,1.22,2.33,5.05-.89,9.54,4.4,15.15,1.79-1.27-2.59-3.81-3.57-3.87-6.1,5.56,4.14,14.49-1.99,19,5.8-1.61,2.55-6.46-.5-6.06,3.48,1.05,10.52-7.02,4.93-8.49,3.75-6.2-4.94-15.37.4-20.7-6.56-.35-.45-3.03.32-4.17,1.15-3.7,2.69-7.28,5.25-12.04,6.12-2.35.43-4.37,3.05-4.5,5.7-.16,3.35,2.94,2.93,5.11,3.33,4.74.88,6.17,4.22,6.18,8.45.01,5.67-.13,11.34-.26,17.01-.06,2.52.98,4.05,3.6,3.79,1.59-.16,4.23.43,3.97-2.35-.72-7.66,4.82-4.17,6.93-3.24,3.91,1.72,7.71,2.75,11.88,2.51,2.84-.17,4.98.96,6.71,3.1-11.02-2.6-21.4,1.91-32.09,2.87-5.39.48-9.5.03-3.85-6.41.86-.98.81-2.88.92-4.38.18-2.38.25-4.87-3.23-4.86-2.81,0-3.48,2.05-3.38,4.19.21,4.36.42,8.77,1.3,13.02.41,1.97,1.43,4.83,4.41,4.62,7.43-.55,15.3,2.9,22.21-2.84,3.82-3.17,8.72-3.81,13.61-3.86Zm478.86-225.67c-7.47-2.12-15.67-2.74-20.71-9.9-2.03-2.88-5.34-3.01-7.62-1.87-4.67,2.34-9.39,5.14-12.98,8.83-1.7,1.74-5.51,5.65-2.23,8.58,3.63,3.26,5.37-1.93,7.89-3.45,1.02-.62,1.94-1.74,2.44-2.84,1.36-3.05,4.06-4.07,6.06-2,2.24,2.31-1.15,4.02-2.56,5.37-3.92,3.73-8.99,6.51-9.29,12.83l.16-.16c-9.6,3.03-15,10.19-18.41,19.11-2.84,7.41-7.41,13-14.44,16.99-5.69,3.23-10.48,7.48-14.11,13.42-5.69,9.3-12.75,17.71-18.58,27.01-3.09,4.93-7.11,10.05-13.97,10.39-6.77.34-12.82,2.86-18.77,5.73-4.05,1.95-5.74,17.68-2.25,20.44,1.48,1.17,2.85-.15,4.2-.17,6.26-.11,8.92-8.16,14.82-7.29,10.31,1.52,19.35-5.89,29.61-3.39.88.21,1.95-.52,1.98-.06-.78-4.46-4-2.58-5.81-5.8,7.03,2.46,13.6-5.38,19.98,2.53,2.3,2.86,6.01-1,8.92-2.39.94-.45,2.22-.85,1.79-2.01-1.1-3-3.88-1.78-5.96-1.85-2.68-.1-3.97-1.86-4.04-3.82-.1-2.62,2.45-2.05,4.12-2.04,4.6.03,8.09-2.44,11.93-4.56-1-3.01-4.77-.96-5.83-4.88,10.89,1.79,12.93-6.52,15.99-13.76.09-.21.32-.45.53-.52,8.73-2.54,4.61-8.89,4.89-15.18-3.53,2.6-6.33,4.09-6.17,8.09.09,2.39-.08,4.23-3.82,4-2.9-.18-4.85,2.83-4.93,5.9-.08,3.38-2.01,4.06-4.61,5.75-7.34,4.76-16.55,7.21-21.62,14.86-3.31,4.99-8.02,4.4-12.62,5.45,5.35-7.17,10.57-13.94,18.34-18.66,4.65-2.82,10.63-2.22,14.41-6.55,1.12-1.29,3.21-2.43,1.67-4.42-1.11-1.44-2.87-.57-4.29,0-4.01,1.63-7.88,4.22-12.03,4.77-5.11.68-8.93,1.55-10.16,7.34-.29,1.36-1.84,4.13-4.53,1.84q5.53-9.86,15.13-14.76c1.43-.73,2.14-2.03,3.06-3.29,2.59-3.52,4.56-8.37,10.81-5.27,2.34,1.16,5.14-2.06,5.24-3.32.42-4.89,5.3-6.51,7.29-6.39,7.84.47,9.62-3.84,9.52-12.51,2.31,3.68,3.52,6.52,6.15,4.49,2-1.54,2.88-3.6.96-5.97-1.08-1.34-1.06-2.89-.34-4.35.33-.67.89-.94,1.75-.25,6.22,4.99,4.12-1.33,3.9-3.26-.46-3.86-1.06-6.51,4.35-3.96,3.26,1.54,5.11.2,3.77-3.63-.85-2.45-3.51-5.9,2.5-3.25,1.65.73,1.65-1.35,1.96-2.49,2.6-9.54,2.43-20.99,15.93-23,.18-.03.31-.39.47-.6,2,.85,4.35,1.33,5.62-.58,1.53-2.29-2.24-2.27-2.46-4-.38-2.98-2.8-4.68-4.48-6.91,2.55-1.35,4.76-.5,6.85.48,1.18.55,2.35,1.62,3.25.09.66-1.11.43-3.06-.76-3.45-7.56-2.41-1.75-5.86-.31-8.14.93-1.47,2.08-2.19,1.77-4.35-.63-4.37,2.27-5.01,5.23-3.29,5.25,3.04,5.73-2.47,8.31-4.14,1.03-.67,2.56-1.71,1.53-3.02-2.28-2.9-5.23-.28-7.82-.58-4.14-.48-7.48,1.4-11.09,2.65-2.11.73-3.24,2.39-2.77,4.08,1.54,5.47-1.65,4.45-5.27,5.42-5.53,1.48-9.88,2.1-13.68-2.88-1.49-1.95-3.81-1.22-5.8-1.23-2.59-.02-6.62-1.68-6.74,2.52-.08,2.88,3.68,1.79,5.76,1.86,3.29.11,6.11,1.38,8.55,3.25,2.55,1.95,3.6,4.68.21,6.85-5.76,3.69-1.9,5.3,1.3,7.3,4.35,2.72,10.52,2.57,13,8.23Zm-410.88,295.86c3.42,5.46,4.2,10.85-2.19,16.76,8.35-.95,15.27,1.56,21.54-1.03,13.59-5.61,26.29-12.93,37.13-23.04,13.93-13,23.8-28.85,32.07-45.86,2.18-4.48,6.51-8.26,2.73-13.81,4.24-1.06,3.52-5.96,6.68-8.1-2.38-.56-4.43-.4-6.43-.59-18.72-1.73-37.11,3.36-55.79,2.62-2.41-.09-4.8.23-5.08-3.11-.31-3.76,2.6-3.35,4.74-3.34,16.39.06,32.67.84,49.12-1.68,10.08-1.55,20.47.49,22.29-13.5.03-.23.23-.46.4-.66,2.54-3.08,3.3-5.75.18-9.4-3.31-3.86-1.6-7.28,2.6-10.05,4-2.64,9.32-2.94,12.47-7.06-2.69-3.83-8.88,1.01-11.5-5.64h18.3c-2.6-4.52-7.25-.71-9.6-4.93,4.75-1.33,8.86-1.36,13.18.78,3.49,1.73,7.52,3.93,9.49-2.09,5.25,3.54,5.52,9.75-.02,12.94-5.15,2.96-5.36,6.19-2.05,10.23,3.57,4.37,3.16,8.35-1.6,10.87-7.87,4.16-2.43,11.03-3.75,16.47-.18.76,3.86,3.7,4.49,3.3,4.64-2.92,9.57-.47,14.25-1.36,8.34-1.58,14.53-6.3,19.24-13.06,4.65-6.68,12.18-9.92,18.33-14.52,7.4-5.53,9.47-18.66,21.62-15.56,2-2.87-8.51-3.16.14-6.17,3.47-1.21,1.56-4.84,2-7.47,1.28-7.62-7.31-15.33.25-22.86.35-.35.21-1.89-.2-2.19-5.51-3.98-4.98-10.73-7.62-15.96-2.87-5.71-4.74-10.29,3.2-12.55-6.79-5.46-13.6-8.45-20.36-2.15-3.31,3.09.85,5.85,1.64,9.45,2.92-2.87.07-6.86,3.86-8.98,1.51,3.75.23,8.23,3.57,11.14.5.43.05,2.62-.61,3.53-.93,1.29-2.53.51-3.39-.3-3.71-3.47-4.77-.13-5.94,2.3-1.72,3.56-1.89,7.43-1.68,11.34.57,10.72,1.01,21.45,1.69,32.16.19,2.94.59,5.41-2.83,7-1.76.82-2.35,0-3.13-.9-2.27-2.61-3.04-5.81-.81-8.47,4.03-4.8,1.42-8.01-2.62-9.59-4.54-1.77-7.24,2.3-8.6,5.78-5.07,13.02-7.8,26.86-13.83,39.57-.52,1.1-1.13,2.83-.65,3.64,3.82,6.4.98,8.16-5.14,7.7-2.07-.16-2.94,3.08-5.6,1.61-.07-5.72,5.28-8.83,6.58-14.14,3.44-14.04,7.49-27.97,12.22-41.63,7.64-22.02,11.05-22.55-16.4-19.52-.51.06-1.03.08-1.54.1-3.08.15-4.96,1.74-4.76,4.84.48,7.47-1.39,14.69-1.98,22.04-9.94-1.93-20.11-5.58-28.81,3.95-3.23-4.73,1.12-7.61,3.64-7.7,10.08-.37,8.31-7.89,9.4-13.82.89-4.83-1.45-6.64-6-6.49-5.4.17-10.8.19-16.2.41-9.53.38-19.11-1.63-28.45-.84-13.11,1.12-26.18,1.49-39.26,1.16-5.09-.13-6.92,1.05-7.05,6.17-.18,7.53,2.16,14.65,2.91,21.92,1.82,17.57-1.62,35.09-2.33,52.67-.05,1.18-.58,2.67-1.42,3.43-3.47,3.17-2.35,6.61-1.63,9.92,2.83,1.05,3.52-8.44,6.76-.63.36.87,1.55.17,1.62-.58.56-5.93,5.14-3.2,8.19-4.02,8.54-2.29,18.15,7.28,26.06-2.32.15-.18,1.73,1.22,2.59,1.17,6.13-.41,11.76,6.32,18.49.69,2.63-2.2,2.68,1.31,2.73,3.23-2.66,1.27-4.32,4-7.95,3.95-8.72-.13-17.48.91-26.16.36-6.6-.42-10.23,2.09-12.2,8.49-2.09-6.91-5.66-8.97-11.21-4.65-2.03,1.57-4.1,1.47-5.68.37-6.26-4.35-8.15.31-9.78,4.7-3.03,8.2-8.78,14.77-13.01,22.25-3.37,5.96-8.39-.59-12.72-.57-2.59.02-4.25,1.53-5.5,3.64-.54.92-1.12,2.05.05,2.62,1.93.95,3.94,1.02,5.61-.8.74-.81,2.33-1.36,2.49-.19.96,6.82,6.3,4.42,10.14,5.02,6.96,1.09,10.72,5.46,12.48,11.87.37,1.35.57,3.54-1.94,2.83-1.49-.43-2.91-3.18-4.31-.71-1,1.77,0,3.88,2.21,5.04,2.26,1.18,1.19,3.11.59,4.74-.39,1.06-1.69,1.72-2.27.57-1.27-2.55-5.17-1.83-5.77-4.69-1.98-9.55-9.84-11.65-17.43-14.39-7.02-2.54-12.98-1.42-15.3,5.1-3.28,9.2-8.17,15.56-20.72,16.19,13.02,3.04,24.16-3.26,26.32-13.7.86-4.13,1.96-3.95,4.89-2.29,3.11,1.76,6.26,4.08,9.63,4.58,4.37.66,5.35,3.3,6.2,6.62-2.64-.37-5.17.12-7.5,1.31-12.84,6.58-25.33,15.24-40.52,5.69-1.18-.74-3.87-.45-2.22,2.67,2.4,4.52-1.73,4.74-3.24,3.22-6.13-6.14-15.55-2.12-21.73-7.71-1.84-1.66-4.13-.01-5.23,1.6-2,2.93,1.45,3.85,2.74,4.2,7.27,1.94,14.18,6.22,21.76,5.74,6.73-.43,13.46-.51,20.04.07,11.23,1,20.03-5.12,29.7-8.65,3.49-1.28,5.61-4.41,6-8.35Zm203.97-270.99c-.89-1.53-.15-2.17.4-3.05,2.17-3.46-1.28-5.96-2.07-8.82-.43-1.54-3.9-.91-5.37.54-1.57,1.54-3.59,3.39-2.8,5.98,1.34,4.39,4.17-3.45,5.92,1.27-4.85,3.3-7.72,10.05-16.11,9.14,3.52,1.97,2.43,4.72,2.73,7.41.54,4.95,3.64,8.82,8.2,11.03,3.84,1.86,6.29-.46,9.14-2.99,2.69-2.39,8.06-5.82,9.98-2.74,2.86,4.57,6.67,3.46,9.81,3.88,15.51,2.08,31.01,2.95,45.64-4.72,4.15-2.18,4.6-7.74,9.27-9.24.18-.06.12-2-.11-2.06-4.26-1.22-4.52-6.01-7.54-8.33-1.84-1.41-5.46-2.88-3.58-5.52,1.69-2.38,3.94.46,5.74,1.79.79.59,1.88.79,2.85,1.14.92.33,2.09,1.07,2.59-.27.3-.81.13-2.57-.34-2.78-4.06-1.84-7.84-5.87-12.71-3.66-6.92,3.13-14.92,2.77-21.42,6.94-1.75,1.13-3.11.89-4.98.22-7.86-2.86-15.78-1.74-23.34.99-4.02,1.45-7.76,3.49-11.91,3.85Zm249.69,43.16c-1.6-5.67-3.7-4.59-6.41-1.48-2.19,2.5-2.97,6.25-7.57,6.71-2.22.22-1.39,2.98.7,3.72,2.45.87,5.23,1.1,7.58-.04,14.58-7.09,25.29-18.15,33.27-32.2,1.7-2.99,3.06-10.49,9.28-3.67,1.33,1.46,3.04,1.07,4.06-.11,1.66-1.92-.41-2.57-1.65-3.26-1.92-1.08-4.1-2.74-2.91-4.74,2.72-4.59-.27-10.62,4.38-14.7,2.26-1.99,1.16-5.37,1.32-8.15.09-1.45.41-3.26-1.78-3.61-1.7-.27-2.52.82-3.7,1.99-6.29,6.23-6.21,16.02-12.6,22.14-.1.09.43.84.75,1.45,2.4.71,3.22-4.74,6.51-1.56-6.16,5.6-15.67,6.5-18.73,16.9-2.01,6.84-12.95,9.87-12.5,20.62Zm-233.5-56.91c5.68,1.82,8.56,1.14,11.54.09,10.62-3.73,21.08-8.27,32-10.72,13.56-3.03,26.81-7.02,40.14-10.75,6.28-1.76,12.52-4.12,18.14-7.71,1.34-.86,2.94-1.57,2.36-3.41-.77-2.45-3.03-1.83-4.57-1.29-2.86,1.02-5.42,2.94-8.32,3.78-11.59,3.37-23.64,5.53-34.78,9.98-7.61,3.04-14.08,2.63-19.77-1.8-5.95-4.64-10.03-.26-12.18,2.7-3.94,5.42,3.98,4.13,5.44,5.86-8.53,6.5-19.35,6.94-30.01,13.27Zm-50.23,99.75c3.23,1.51.9,6.43,4.45,6.13,3.67-.31,2.66-4.32,3.53-6.81.84-2.4,1.81-4.76,2.62-7.17,1.98-5.94-1.42-10.09-6.39-9.05-8.86,1.86-17.01-1.47-25.52-1.25-1.49.04-2.94.3-2.72,1.76.94,6.34-4.07,11.94-2.36,18.49,8.76-3.39,18.4,8.35,26.39-2.1ZM61.89,208.12c.53,8.74,1.04,17.48,1.6,26.21.16,2.5,1.23,4.54,3.83,5.19.84.21,2.25,0,2.73-.57,1.52-1.82.73-3.74-.15-5.72-4.26-9.66-2.58-19.59-1.26-29.53.49-3.66,3.87-5.32,5.13-8.67,2.86-7.59-.88-13.78-3.69-19.72-2.26-4.78-2.77-7.23,2.39-9.6,1.66-.76,3.54-2.68,2.17-5.05-1.2-2.06-3.36-2.13-5.51-1.6-5.23,1.3-6.74,4.96-6.35,9.91.73,9.22,4.35,18.01,1.89,27.84-.93,3.71-3.07,7.32-2.79,11.31Zm190.75,152.8c-6.71-7.8-13.83-8.01-18.61-.01-4.76,7.96-11.53,5.73-17.88,6.74-1,.16-2.13-.39-2.07-1.7.03-.62.71-1.78.85-1.74,7.21,1.89,9.22-6.42,14.94-7.65,1.69-.36,5.12-1.96,3.1-4.89-1.6-2.32-5.05-1.33-6.1.36-3.15,5.04-8.8,5.61-13.2,8.27-6.97,4.2-7.83,8.29-.97,11.86,3.59,1.87,5.07,3.46,4.68,7.27-.22,2.17,1.47,3.19,3.32,3.62,2.08.49,4.29-1.07,4.4-2.31.46-5.32,5.77-7.05,7.51-10.42,4.22-8.14,10.1-10.69,20.03-9.39Zm169.46,14.92c7.64.07,8.44-6.87,12.1-10.5,1.03-1.03,3.98-1.3,2.57-3.86-1.12-2.03-3.21-.87-4.88-1.01-10.34-.88-19.85,5.06-30.1,3.91-3.87-.43-6.27,2.95-10.14,2.15-3.1-.65-2.9,1.9-1.99,4.02,3.1,7.25,6.25,8.45,12.81,4.39,3.76-2.33,10.14-1.33,11.58-4.01,2.64-4.94,7.1-4.62,9.34-3.43,4.14,2.21-1.66,4.82-1.29,8.34Zm146.75-244.33c2.32-5.52-3.66-5.7-3.84-9.23-.17-3.32,1.25-9.55-2.02-9.27-5.68.49-1.76,6.7-2.85,10.25-.89,2.89,1.09,4.76,2.18,7.05,5.68,11.94,9.86,24.33,9.71,37.75-.03,3.01.59,5.6,3.64,5.62,3.15.02,2.99-3.25,2.71-5.37-.92-6.97.94-14.43-3.86-20.76-2.5-3.3-.83-6.08,1.97-8.37-2.72-1.96-6.5-2.56-8-6-.31-.72.42-1.89.37-1.68Zm-229.06,207.08c0,.08,0,.16,0,.24,3.87,0,7.75,0,11.62,0,3.07,0,6.71.6,6.43-4.22-.22-3.79-3.61-4.8-6.17-4.17-5.09,1.26-10.25-2.54-15.19.6-.44.28-2.72,1.5-1.96-1.34,1.86-6.94-4.53-3.79-6.82-4.76-2.7-1.14-4.97,1.33-5.25,4.84-.47,5.96-.57,11.04,8.08,8.92,2.92-.71,6.16-.11,9.26-.11Zm263.49,33.4c4.11,2.29,7.15,5.92,11.82,1.83,2.16-1.89,4.36-.48,6.35.7,1.07.63,2.82,2.04,3.25.82,2.21-6.34,5.93-.97,8.83-1.31,1.54-.18,2.97,3.15,4.54,1.12,1.08-1.39,1.23-3.88,1.04-5.81-.26-2.62-2.55-1.73-4.27-1.73-1.98,0-4.17.22-4.89-3.26,3.54,1.05,5.8-6.64,9.93-.52.26.38,2.65-.04,3.4-.76,1.38-1.33.39-3.49-.66-4.02-2.49-1.26-4.49-4.19-8.35-.76-4.32,3.83-10.95,5.17-14.99,9.18-4.72,4.69-11.03.12-16.02,4.52Zm-39.46-29.25c1.96-.56,4.03-.89,5.87-1.72,11.58-5.24,14.65-16.32,18.14-27,.6-1.84.72-4.41-2.39-4.59-2.19-.13-3.96.51-4.31,3.25-.3,2.36-.2,4.49-1.72,7.02-4.37,7.31-9.89,13.36-16.3,18.74-1.01.84-2.22,1.35-1.7,2.96.38,1.16,1.28,1.46,2.4,1.34Zm-56.43-231.95c6.08-.8,11.87-4.99,18.39-1.25,1.01.58,2.89-.81,3.61-2.32,1.61-3.41,3.04-6.92,4.77-10.27.73-1.43,1.9-2.66-.18-3.72-1.4-.72-2.96-1.04-3.89.83-1.17,2.36-2.87,4.79-5.36,4.99-6.84.53-12.23,4.67-18.46,6.62-1.42.45-3.29.48-2.87,2.69.41,2.14,1.87,2.91,3.99,2.44Zm61.2,180.29c-.53.23-1.17.31-1.43.67-5.42,7.33-11.27,14.25-18.35,20.1-1.27,1.05-.94,3.37-.12,5.13.49,1.06,1.34,1.84,2.35,1.2,5.02-3.16,9.96-7.56,12.92-11.77,3.12-4.44,2.98-8.19,9.06-3.74,2.41,1.77,4.38-.79,4.97-3.13.54-2.13-.12-4.77-3.04-3.58-3.3,1.34-3.38-.7-3.97-2.65-.37-1.24-.68-2.53-2.4-2.24Zm-444.33,59.74c4.81.97,9.02-1.22,13.4-2.48,1.57-.45,4.09-.03,3.73-2.72-.3-2.23-2.58-2.49-4.26-2.51-8.33-.14-16.66.17-24.94-1.25-1.31-.22-3.3-.12-3.58,1.95-.25,1.86.1,3.67,2.33,4.2,4.43,1.05,8.47,3.84,13.31,2.81Zm436.33-1.58c1.85,3.24,3.81,2.42,5.39,2,9.21-2.45,17.31-9.47,27.84-6.67.6.16,2.02-.87,2.24-1.59.38-1.3-.44-2.36-1.77-3-1.63-.79-4.91-.93-2.88-3.87,1.48-2.14,4.33-4.38,1.16-6.13-3-1.65-4.8,1.59-6.09,4.29-2.48,5.17-6.95,8.97-12.01,10.29-4.71,1.24-8.87,3.43-13.88,4.68Zm125.92-4.46c.23-2.15.46-4.86-2.07-5.03-2.14-.14-4.91,1.89-4.57,4.22,1.57,10.91-7.08,16.92-11.43,24.97-.79,1.46-3.15,2.62-1.06,4.36,1.66,1.38,3.55,1.05,5.49-.53,8.95-7.27,10.13-18.2,13.64-27.99ZM377.63,103.99c-4.55-2.79-9-5.72-13.65-8.29-2.3-1.27-5.43-2-6.54,1.29-1.23,3.66-1.47,7.64-2.06,11.5-.01.09,1.09.61,1.33.45,6.33-4.31,15.05,1.72,20.91-4.94Zm282.24-8.64c-1.05.48-2.27.65-2.72,1.33-.78,1.18-.25,2.9.78,3.4,5.88,2.85,5.82,9.24,8.16,14.02,1.36,2.77,2.9,4.34,5.27,5.92,1.95,1.3,3.77,3.61,5.65.84,1.38-2.03.38-4.53-1.87-5.94-3.94-2.48-5.85-5.55-5.78-10.61.07-5.6-5.95-6.07-9.49-8.95Zm-507.39,232.41c-3.11-10.43-16.19-2.16-20.1-11.52-.5-1.19-3.85-.36-5.8.45-.24.1-.48.2-.69.34-2.42,1.59-4.93,2.66-7.96,1.97-1.62-.37-3.33,0-3.05,2.14.28,2.12,2.09,1.76,3.63,1.5,4.86-.84,10.08-1.75,14.3.94,6.16,3.93,13.33,1.36,19.68,4.17Zm273.77,70.5c1.04-.05,2.36.08,2.43-.14,2.61-9.48,10.24-16.18,13.86-25.09.6-1.48.35-2.51-1.22-2.93-1.49-.4-3.62-.83-4.1.85-2.24,7.91-13.42,11.87-9.81,22.41.44,1.29-.69,3.12-1.15,4.91Zm32.12-62.37c2.29,5.13,8.23,1.89,11.37,5.53,1.19,1.37,4.29.92,4.94-1.56.58-2.24-2.35-1.82-2.89-2.38-5.13-5.35-13.35-3.14-18.61-8.15-1.9-1.81-6.67-1.79-6.67,1.29,0,1.92,3,5.19,4.76,7.74.78,1.13,3.84,1.3,5.32-.99.35-.54,1.03-.87,1.78-1.48Zm88.91-135.63c3.62,1.44,6.17,1.71,8.45.41,7.05-4.03,13.52-8.69,16.48-16.82.57-1.57,2.84-3.1.57-4.52-1.74-1.09-2.92.71-4.3,2.01-6.57,6.2-12.03,13.64-21.21,18.92Zm-384.31,224.02c-5.56-7.39-17.09-6.33-20.62.55-1.42,2.77-.51,4.76,1.45,6.88,2.44,2.64,4.1-.08,5.13-1.02,3.78-3.45,7.24-7.14,14.04-6.41Zm-38.77-98.23c-4.41-.52-8.24,2.3-8.28,5.84-.05,4.39,5.43,5.17,8.88,5.55,3.33.36,7.72-1.66,7.76-5.51.05-4.43-3.86-6.1-8.36-5.88Zm7.19-31.97c-.1-2.39-.93-3.87-2.84-3.2-5.59,1.96-11.01.11-16.47-.42-1.71-.17-3.18-.39-3.68,1.5-.5,1.87.06,3.71,1.82,4.68,6.47,3.57,13.09.77,19.62.09.7-.07,1.2-2.01,1.56-2.65Zm440.56-175.46c1.2-5.61,14.05-1.31,9.25-10.45-2.14-4.08-8.86-3.69-11.73-1.62-5.53,3.99,3.45,7.18,2.48,12.08Zm56.02,32.55c.65-.21,1.32-.52,2.02-.64,1.66-.27,3.89,3.07,4.95-.61.56-1.95.63-4.49-1.4-5.54-2-1.04-4.31-1.32-5.75,1.73-.75,1.6-2.66,7.43-2.05,9.15.33.94-.03,2.17.4,3.02.9,1.79,2.26,4.14,4.43,3.21,2.26-.97,1.42-3.31.64-5.38-.71-1.91-3.75-2.11-3.25-4.94ZM149.35,477.23c-1.77-3.3-5.13-4.74-8.16-6.26,1.13-2.43,4.72-.73,4.59-3.89-2.44-1.35-4.72-3.05-7.28-3.89-2.56-.85-5.38-.79-4.9,3.37.52,4.49,10.51,11.27,15.76,10.68Zm447.19-124.41c7.54,5.69,13.84-2.14,20.66-.33.9.24,1.55-1.75.98-2.38-1.64-1.82-3.4-3.73-5.51-4.88-2.46-1.33-3.56.41-4.17,2.8-.61,2.39-2.81,2.1-4.48,1.6-3.39-1.02-5.01,1.41-7.47,3.18Zm14.85-16.62c-.31,3.51.38,6.11,4.81,5.75,2.85-.23,4.96.86,5.92,3.74.8,2.39,2.63,3.62,4.62,1.87,2.04-1.79-.85-3.02-1.53-4.37-2.58-5.17-10.69-6.1-10.57-13.62,0-.49-2.53-.2-2.42,1.47.12,1.82.27,3.54-.84,5.15Zm-70.66,31.8c.83,2.47,3.18.79,3.95,2.13,2.66,4.62,7.24,3.89,10.65,2.57,3.5-1.36-1.46-4.45-.18-7.12.63-1.31,1.31-4.2-1.05-4.51-3.76-.5-1.73,2.41-1.82,4.12-.11,2.09-1.75,2-3.34,2.08-2.7.13-5.39.47-8.22.73Zm-238.85,62.27c-2.53,1.37-7.61-1.2-7.94,2.16-.43,4.37,4.64,1.79,7.14,2.75,1.66.64,3.38,1.13,5.1,1.6,2.02.55,4.44,1.09,4.7-1.84.18-2-1-3.98-3.49-4.27-1.76-.2-3.53-.26-5.51-.4Zm207.94-55c1.21,1.9,3.35,3.84,5.36,2.39,3.84-2.77,7.28-5.27,12.35-3.41.95.35,2.5-.78,2.55-2.3.07-1.88-1.38-2.85-2.9-3.02-6.08-.7-10.69,4.14-16.51,4.61-.25.02-.43.85-.85,1.73Zm-363,67.83c-1.3-3.61-4.95-4.9-8.64-5.14-1.96-.13-5.92,1.92-4.8,3.59,2.12,3.18,6.22,4.73,10.31,5.24,2.31.29,3.31-.8,3.14-3.69Zm468.98-251.68c-2.27,1.08-6.81-1.23-6.79,2.43.02,3.62,4.09,4.63,7.73,4.24,2.62-.28,6.38.71,5.91-3.74-.47-4.39-4.4-2.03-6.85-2.92Zm-255.15-50.74l.31-1.95c-3.82-1.37-7.58-2.98-11.49-4.03-2.34-.63-3.68,1.21-4.36,3.35-.49,1.53.11,2.57,1.69,2.6,4.62.09,9.24.03,13.86.03Zm242.21,6.77c-.17-4.25-2.83-3.51-5.07-3.57-3.6-.08-5.95,2.05-6.71,5.08-.53,2.12,2.55,4.57,3.7,3.54,2.51-2.24,7.68-.73,8.08-5.06Zm-137.03,179.65c4.07,4.06,8.06,7.47,14.06,4.69,1.96-.91,2.48-2.5,2.8-4.18.25-1.31-1.33-1.93-2-1.48-4.82,3.23-9.89.1-14.87.98Zm-39.88-175.1c4.06,1.29,7.26.29,9.57,3.18,1.37,1.71,4.29,1.32,6.53.52.44-.16.96-1.29.8-1.73-.93-2.5-3.17-3.14-5.53-3.37-3.29-.33-6.58-.58-11.37,1.41Zm214.32-39.83c7.63.77,11.84-2.2,15.89-5.65-5.78-1.8-10.33.28-15.89,5.65Zm-351.11,336.81c5.17,1.85,9.45,3.02,13.85.77.88-.45.61-1.96-.36-2.59-4.37-2.82-8.55-2.47-13.49,1.82ZM587.89,118.88c3.2-1.41,6.44-3.64,8.18-7.39.5-1.08-1.35-1.79-2.03-1.16-2.93,2.7-8.72.86-9.84,6.04-.4,1.84,1.33,2.51,3.7,2.51Zm43.44,3.29c-1.89-.08-3.72.45-2.93,1.82,1.57,2.72,2.31,6.53,6.14,7.22,1.87.34,3.89-.39,3.41-2.9-.72-3.8-4.35-4.56-6.62-6.13Zm10.01,154.57c-.36-2.75-2.71-3.92-4.77-3.86-1.69.05-4.41,1.52-4.33,3.5.09,2.13,2.07,4.48,4.36,4.58,2.19.09,4.24-1.48,4.74-4.21Zm-33.79-75.35c-1.91.46-4.98-1.23-5.02,2.66-.04,3.53,2.71,3.94,5.22,4.06,2.98.15,5.16-2.04,5.13-4.51-.03-3.35-3.38-1.7-5.33-2.22Zm-411.17,255.17c-3.22,1.48-3.82,3.93-4.03,6.54-.3,3.76,2.85,2.86,4.81,3.27,1.68.35,4.33.44,3.55-2.21-.8-2.73-2.85-5.1-4.33-7.59Zm311.9-243.82c-.2,3.46,3.61,5.12,2.68,8.64-.58,2.19,1.52,3.1,3.5,2.58,2.56-.67,3.07-2.78,1.88-4.77-1.78-2.99-4.49-5.08-8.07-6.45Zm-111.94-59.75c1.98-.14,2.99-1.1,2.24-2.47-1.66-3.05-3.86-5.82-7.47-6.61-1.36-.3-2.33.95-1.93,2.47,1.03,3.86,4.39,5.14,7.15,6.61Zm174.18,167.79c-.33-1.95-.78-4.04-3.22-3.39-3.14.84-2.93,3.86-3.19,6.35-.16,1.53.13,3.9,1.89,3.46,2.94-.74,4.13-3.55,4.52-6.43Zm58.47-226.15c-2.04-1.38-4.03-3.39-6.41-4.1-1.59-.47-2.07,1.91-1.73,3.41.55,2.42,1,5.21,4.55,4.85,2.12-.22,2.68-2.03,3.6-4.16ZM211.91,357.36c1.93-2.47,7.49-1.48,5.97-6.62-.61-2.05-1.82-3.21-3.97-2.48-5.05,1.72-2.62,5.59-2,9.1Zm-92.67-75.21c-1.76-.65-3.16-1.18-4.58-1.69-2.24-.81-4.21-.25-5.33,1.76-.54.96-.72,2.77-.16,3.59,1.89,2.8,3.28-.96,5.22-.73,1.6.19,3.72.22,4.84-2.93Zm214.34,93c-5.56-2.6-9.24-3.88-13.31-2.29-.28.11-.44,1.76-.12,2.02,3.6,2.89,7.46,2.2,13.43.27Zm-32.42,63.61c-3.11-3.43-7.11-1.59-9.84-3.73-1.36-1.06-2.97-1.12-3.34,1.15-.28,1.67.25,3.26,2.18,3.35,3.46.15,7.02,1.33,11-.77Zm47-63.67c-4.22.1-7.61-4.17-12.1-2.03-.34.16-.52,1.71-.27,1.89,4,2.77,8.17,1.11,12.37.15Zm25.79-185.09c3.37.92,4.75,5.74,9,4.44,1.84-.56.66-1.85.03-2.95-2.35-4.09-5.6-2.84-9.04-1.5Z"/>
  <path class="cls-1" d="m111.36,213.6c5.21,2.17,11.59-2.58,16.42,3.16,1.8,2.14,2.75-.67,3.49-2.25,1.84-3.93,4.13-7.41,9.25-7.47-.51-.97-.77-1.78-.95-1.76-6.63.64-11.51-.06-11.2-8.95.11-2.98-4.3-4.66-7.93-4.66l.2.22c.78-2.47,2.85-4.67,4.78-2.58,3.84,4.16,8.23,2.27,12.48,2.49-.31.95-.35,2.16-.97,2.8-1.59,1.61-4.22,3.08-3.24,5.46,1.07,2.62,4.08,1.23,6.27,1.28,4.11.1,8.26.37,12.34.02,3.48-.3,7.47,1.72,10.87-1.72-2.84-2.91-6.89-.19-9.54-2.91,1.31-1.87,2.49-3.52,4.41-4.82,2.47-1.67,7.19-2.84,4.45-7.17-2.33-3.68-5.84-2.37-9.38-.65-5.21,2.54-9.51,6.82-15.43,7.94-.63-6.8,5.44-7.45,9.35-9.56,8.57-4.61,8.59-4.27,2.83-12.38-4.87-6.86-9.99-13.66-9.53-22.86.22-4.44.92-6.05,5.59-3.21,10.72,6.52,23.09,8.9,34.93,12.33,7.53,2.18,15.6-.81,23.55-.15,7.27.6,13.93.84,19.45,6.92,4.24,4.67,12.4,3.63,16.83-.78,1.63-1.63,2.38-3.24,1.46-5.49-4.28-10.53-3.42-13.67,6.37-21.37-2.82,3.67.06,8.92-4.85,12.5-3.06,2.23.61,5.71,2.27,7.81,1.76,2.23,2.6-.14,3.62-1.77,2.13-3.4,4.93-2.04,5.37.79,1.12,7.1,5.63,8.48,11.6,8.46.98,0,2,.48,2.93.92,1.58.74,3.86,1.47,3.09,3.63-.66,1.86-2.96,1.71-4.78,1.67-.5,0-1.01-.19-1.5-.32-9.02-2.35-11.75-.88-14.34,7.71-.32,1.05-.39,2.15.6,2.77,1.77,1.12,2.82-.02,3.68-1.45,1.76-2.92,3.65-5.58,7.6-5.63,1.21-.02,2.9-1.26,3.56.05,4.59,9.11,8.18,1.88,13.04-.25-1.38,3.17-2.16,6.87-4.33,9.36-1.9,2.19-2.95,4.38-.88,5.72,2.25,1.46,4.59,4.74,7.92,2.88,1.4-.78,2.9-2.15,4.07-1.25,5.64,4.39,11.05,1.93,16.54-.08l-.21-.22c-.05,2.52-.38,4.8,2.02,6.97,2.09,1.89-.39,3.82-2,4.79-1.99,1.2-3.6.28-3.54-2.19.07-3.37-2-3.6-4.56-3.65-6.91-.14-13.95.86-20.53-2.32-.64-.31-1.79-.47-2.25-.12-7.24,5.58-12.29,1.81-17.79-3.32-4.35-4.06-9.88-6.85-14.75-10.38-1.81-1.32-3.76-2.67-5.44-.84-2.44,2.66-5.13,1.62-7.88,1.54-2.25-.06-5.6-.96-6.32,1.43-1.63,5.38-3.32,2.06-5.4.66-4.13-2.78-8.39-.09-12.53.22-1.87.14-2.21,2.56-.36,4.19,1.65,1.45,3.29,2.91,5.48,4.85-5.38,2.28-6.95-1.83-8.94-4.39-1.3-1.67.14-5.88-2.65-5.7-4.86.31-9.74-3-14.25-.53-5.78,3.17-9.61-1.64-14.33-2.64-.48-.1-1.1-1.89-.85-2.64.5-1.53,2.08-1.3,3.27-.94,15.92,4.77,31.86,2.6,47.87.49,3.1-.41,6.45,1.37,9.72,1.9,1.47.24,3.34.18,4.06-1.48.81-1.87-1.01-3-2.15-3.59-10.16-5.25-18.66-12.88-32.19-11.55-15.62,1.54-31.78-.26-46.03-8.83-1.89-1.14-3.94-1.42-5.89-.4-1.45.76-1.28,2.15-.35,3.25,1.99,2.38,1.78,6.15,6.26,6.98,18.84,3.53,37.64,6.98,56.96,5.66,1.72-.12,3.64.03,5.75,2.82-21.69,2.31-42.17.53-63.97-6.68,8.1,14.77,18.58,24.34,30.36,32.44,15.52,10.67,31.39,20.82,47.2,31.05,1.33.86,3.17,5.41,5.21-.18.86-2.36,4.23-1.3,5.64.93,5.11,8.11,13.5,13.26,18.88,21.04,4.05,5.86,12.06,5.27,16.47,10.96,1.22,1.57,6.54,2.65,6.02,5.15-.69,3.35-5.12,3.59-8.47,3.94-.1-4.31-3.98-5.39-6.49-7.67-2.02-1.83-5.27-1.37-6.69-4.64-2.69-6.2-9.68-8.85-13.04-14.7-.98-1.7-3.22-2.13-4.65-.5-1.38,1.57.28,2.69,1.42,3.74,6.54,6,11.56,13.52,19.12,18.57,3.21,2.15,5.1,6.38,9.93,5.67.22.96.14,2.51.71,2.8,11.19,5.8,18.43,16.62,29.17,22.88,2.88,1.68,4.37,4.1,6,6.65,0,0,.13-.21.13-.21-7.84.25-12.62-6.07-19.02-8.79-20.64-8.77-34.61-25.23-48.8-41.38-5.49-6.24-10.93-12.16-17.95-16.79-11.89-7.85-23.25-16.15-36.66-21.88-8.9-3.81-17.6-4.96-26.67-6.06-4.62-.56-9.4-2.1-14.11.66,2.62,3.58,5.93,1.46,8.63,2.13,3.27.81,1.23,4.6-4.8,7.32,4.4,1.84,8.32,3.56,12.32,5.1,1.27.49,3.03.05,3.28-1.26,1.9-9.91,9.41-3.69,14.25-4.91,1.8-.46,3.15,1.44,3.2,3.57.04,1.6-.2,3.13-1.72,4.04-2.03,1.21-3.37.22-4.48-1.5-2.11-3.26-4.78-4.03-9.5-1.79,7.31,3.28,11.52,9.25,20.3,9.92-5.02,2.54-8.14,1.83-11.28.33-10.12-4.86-20.99-6.41-32.01-7.95-8.73-1.22-17.8,1.46-26.3-2.77-2.4-1.2-5.21-1.03-3.96-4.82l-.23.19Zm158.51-31.1c-4.11,1.82-7.01,3.11-11.72,5.2,6.01,1.01,9.5,1.13,11.72-5.2Z"/>
  <path class="cls-1" d="m319.33,70.96c-.75.13-2.08.09-2.18.41-2.59,9.05-8.29,6.63-14.11,3.76.72,5.8.73,5.87,6.08,5.32,4.73-.49,6.02,1.86,6.7,6.22.43,2.81-3.96,11.05,5.62,7.09,3.2,4.87,8.49,5.11,13.45,6.15,1.25.26,2.52.87,2.49,2.46-.05,2.71-1.65,1.63-3.16,1.35-2.54-.48-3.09,3.47-5.82,2.84l.2.22c-.75-4.12-2.7-6.83-7.36-7-2.86-.1-5.09-.3-4.74,3.76.38,4.37-1.51,5.08-5.62,3.54-3.48-1.3-6.99.48-10.09,2.29.03.67-.14,1.39.11,1.59,2.26,1.77,7.73,2.91,5.75,5.63-2.28,3.15-6.77-1.63-10.84-1.39-3.78.23-2.19-2.83-.78-4.86.73-1.05,1.44-2.37-.21-3.26-1.42-.76-2.74-.06-4.24.24-6.34,1.26-12.81,1.95-19.25,2.65-.73.08-1.59-1.06-3.04-2.11,4.18-2.81,8.45-4.42,11.96-7.31,9.98-8.23,8.73-20.89-3.18-26.59-8.14-3.9-16.32-2.52-23.84,1.93-2.22,1.31-4.78,2.69-6.11.88-2.16-2.94,2.05-3.67,3.38-4.66,2.57-1.92,5.58-4.09,9.04-3.91,8.84.45,11.88-6.35,12.99-12.44,1.15-6.28-3.54-11.27-9.65-13.87-10.41-4.44-19.01-.58-27.08,5.96-1.91,1.55-3.89,5.97-6.63,2.37-2.22-2.91,1.71-4.31,3.83-6.11,7.21-6.12,15.39-8.89,24.76-8.21,11.24.81,21.85,12.96,21.84,24.09,0,4.43-2.71,1.41-3.89,2.25-1.42,1.01-3.57,2.06-3.84,3.4-.58,2.9,2.36,1.72,3.8,2.3,6.6,2.64,13.17,2.7,19.92.31,2.07-.73,4.7-.6,6.89-.08,3.67.87,6.58,4.18,9.82-2.13,1.48-2.87,5.48,1.81,6.75,5.17,0,0,.22-.24.22-.24Z"/>
  <path class="cls-1" d="m471,468.14c2.14-3.53,4.97-2.38,7.33-2.41,12.82-.15,25.85,1.31,38.4-.55,16.23-2.41,32.37-1.67,48.47-1.3,12.82.3,25.64,1.63,38.53,1.72,5.27.04,9.91-2.57,15.17-2.04,20.87,2.11,41.82,3.9,62.75,1.88,10.57-1.02,21.31-1.78,31.65-3.89,11.35-2.32,21.97.34,32.89,1.41,1.32.13,3.23.77,2.79,1.99-1.66,4.63-.69,10.89-5.99,13.39-4.02,1.89-8.58,1.6-11.79-2.66-4.04-5.38-8.28-6.25-15.61-4.88-10.63,1.98-22.01,4.46-33.06-.17-4.08-1.71-8.23-.69-12.6,1-3.6,1.4-8.13.43-12.24.46-1.73.01-4.22-.71-4.01,2.01.28,3.51,2.76,1.48,4.63,1.39,7.9-.39,15.82-.64,23.73-.7,1.65-.01,3.96.43,3.72,2.95-.17,1.84-1.12,3.6-3.48,3.33-9.73-1.11-19.3,1.97-29.09.94-4.5-.47-7.41-1.3-5.15-6.3,1.66-3.68-.85-3.39-2.73-3.36-7.21.12-14.45-1.29-21.54-1.61-11.11-.5-22.38-.89-33.54-.96-36.32-.23-72.65-1.1-108.98-.03-3.24.1-6.69.35-10.27-1.62Z"/>
  <path class="cls-1" d="m642.18,417.56c-2.01-3.91.51-3.52,2.9-2.93,5.88,1.43,5.92-3.9,6.06-6.52.23-4.49-4.08-2.76-6.14-2.13-5.53,1.69-2.6-4.7-5.5-5.25,1.55-2.65.22-7.79,4.02-7.9,3.28-.1,6.5-.43,9.76-.67,1.36-.1,4.15,1.23,3.05,2.26-7.06,6.61,4.95,12.07.78,18.25,8.32,7.2,7.9,18.78,13.72,27.18,1.39,2.01,3.77,3.55,6.65,3.37,1.79-.11,3.65-1.81,2.09-2.57-5.42-2.64-4.87-9.03-8.74-12.42h-.03c6.11-1.19,10.45-1.73,10.27,7.54-.07,3.58,3.04,9.04,5.23,13.51-2.05,2.2-3.2-1.98-5.23-.94-.11.37-.4.84-.38,1.3.12,2.93,5.91,2.34,4.12,6.34-1.69,3.78-5.58,3.47-8.74,3.56-11.27.32-22.56.31-33.84.34-2.29,0-4.05-.87-3.76-3.68.28-2.69-.25-4.96-2.48-6.88-.66-.57-.79-2.67-.27-3.55,1.59-2.68,2.1-.02,3.02.83,1.14,1.05,1.85.26,2.16-.79.65-2.22,1.53-4.61-.32-6.59-1.56-1.67-6.1-1.95-4.06-5.22,3.24-5.19-1.43-12.96,5.8-16.53-2.48,8.22-2.4,9.52,1.98,15.37-3.75-11.18,4.79-11.24,13.01-12.91-6.48-3.13-11.07-.35-15.13-2.34Zm8.73,10.76c-.66-.03-1.32-.06-1.98-.09-1.21,2.73-2.38,5.48-3.63,8.19-2.24,4.86-1.34,10.1-1.65,15.14-.16,2.56,1.92,4.7,4.87,5.12,1.61.23,2.37-.78,2.37-2.22.04-8.72.02-17.43.02-26.15Zm11.15,21.31c-1.55,1.01-5.13-.6-5.13,3.51,0,1.61,1.01,3.57,2.69,2.55,2.47-1.5,7.04.99,7.56-3.4.35-2.97-2.83-2.03-5.12-2.66Z"/>
  <path class="cls-1" d="m545.1,478.22c-.07,4.54-3.72,3.85-6.17,3.61-14.92-1.44-29.85,1.06-44.78-.49-12.07-1.25-24.19-1.55-36.38-1.56-10.37,0-21.28,2.86-31.83-.7-3.19-1.08-7.2-.93-10.52.88-1.79.98-3.4,2.08-3.83-.91-.3-2.11.99-3.27,3.25-3.29,7.98-.08,15.96-.33,23.94-.3,15.94.05,31.89.35,47.83.33,16.5-.02,33.01-.19,49.5-.53,3.62-.07,6.37,1.35,9.16,3.16l-.18-.2Z"/>
  <path class="cls-1" d="m218.61,613.46c7.54.2,13.86,4.53,21.07,2.53,2.75-.76,5.5-.49,6.67-3.96,1.07-3.15,3.96-2.77,6.54-2.42,1.47.2,2.24,1.21,2,2.72-.46,2.83-2.75,3.2-5.02,3.99-6.39,2.23-12.53,5.45-19.67,3.43-.87-.25-2.33-.13-2.87.43-10.49,10.89-23.63,4.75-35.25,4.4-9.46-.28-18.78-5.45-28.15-8.47-1.66-.53-4.11-.78-3.74-3.08.58-3.61,3.24-1.23,4.9-1.05,2.92.31,6.74-1.96,8.3,3.04.56,1.79,2.96,1.76,4.64.41,1.09-.88,1.56-2.38,3.47-.42,6.81,7,15.17,4.64,23.11,2.81,3.46-.79,6.36-1.21,9.5.81,1.54.99,3.46,3.04,5.46,1.04,1.99-1.99-1.08-3.58-.96-6.22Z"/>
  <path class="cls-1" d="m261.07,579.83c-.47,4.92,4.53,7.75,5.04,12.23-2.88,1.91-5.24-.33-7.74-.22-2.25.1-5.25-.71-6,2.12-.93,3.47,2.82,3.87,4.78,4.86,1.94.98,4.52.68,6.81.99,1.94.26,3.44,1.05,3.66,3.27.24,2.47-1.78,3.83-3.16,5-2.45,2.1-2.45-1.03-3.48-2.19-3.99-4.52-12.55-5.64-15.75-1.1-4.1,5.82-9.09,5.1-14.37,3.94-9.42-2.07-18.45-2.25-27.03,3.02-2.92,1.79-5.81,1.33-8.06-1.38,8.96-7.28,20.49-5.23,30.36-8.96,3.68-1.39,4.12,3.23,7.55,4.46-.94-6.45,2.53-7.61,7.38-7.01,2.43.3,5.78,0,6.15-2.09,1.5-8.45,10.74-10.06,13.98-16.76l-.12-.18Z"/>
  <path class="cls-1" d="m74.04,10c6.56,1.42,13.47,2.35,15.84,10.54.54,1.85,2.18,3.4,3.38,5.04.59.81,2.02,1.92,1.86,2.21-2.57,4.56-4.77,9.54-8.3,13.25-1.74,1.84-2.92-1.31-3.09-3.51-.4-5.18.85-10.97-6.52-13.03-5.07-1.42-9.8-2.84-14.68.22-2.08,1.3-3.79.82-5.41-1.06-1.78-2.07-.61-5.39.19-5.52,6.43-1.03,8.75-10.3,16.73-8.15Z"/>
  <path class="cls-1" d="m545.28,478.42c4.35-6.34,10.64.78,15.46-2.23,2.77,4.75,8.19,2.39,10.68,1.76,7.4-1.88,14.76-.89,22.07-1.68,4.74-.51,9.57-1.33,14.41.98,3.65,1.74,7.85,2.74,11.6-.65,1.37-1.24,3.25-1.69,5.02-.68,1.01.57,1.19,1.67.66,2.69-1.09,2.08-2.97,2.64-5.19,2.64-12.11-.02-24.22-.05-36.33.03-6.17.04-12.35.18-18.51.5-6.99.37-13.64-.81-20.05-3.55,0,0,.18.19.18.19Z"/>
  <path class="cls-1" d="m294.71,225.74c-3.38-7.4-10.13-10.74-16.88-14.13-1.29-.65-2.67-1.14-3.32.17-.46.91-.23,2.73.43,3.53,1.79,2.16,3.64,4.68,6.06,5.82,7.72,3.65,10.74,12.32,18.09,16.32,1.22.67,3.32,2.8,1.92,4.38-1.93,2.17-3.28-.02-4.84-1.52-8.74-8.41-18.32-15.88-25.7-25.77-4.37-5.86-1.28-6.48,3.28-6.79,4.58-.31,9.21-.04,13.81-.03,1.33,0,3.22.19,3.21,1.48-.07,5.89,6.02,10.26,3.94,16.56v-.02Z"/>
  <path class="cls-1" d="m241.44,13.99c-7.85-11.73-18.7-4.44-28.02-5.45-11.71-1.27-17.25,7.84-21.26,17.41-.71,1.68-.79,3.71-3.4,3.03-2.46-.64-1.97-2.66-1.9-4.41.03-.76.3-1.51.51-2.26,2.16-7.55,17.21-18.61,24.99-18.58,7.45.03,14.94-.62,22.35-.14,5.06.32,9.66,2.33,6.72,10.39Z"/>
  <path class="cls-1" d="m124.01,86.62c.8,12.61,6.05,20.01,15.33,24.56.92.45,2.09,1.4,2.8,1.15,13.68-4.98,28.64,7.54,42.19-4.3-2.22,8.06-14.97,13.57-21.81,9.6-4.2-2.44-8.27-2.89-12.49-2.41-8.8,1-16.45-.25-21.41-8.46-1.49-2.46-6.29-.85-6.1-4.88.2-4.27-2.17-8.61,1.49-15.25Z"/>
  <path class="cls-1" d="m729.62,484.28c-6.84-.11-12.57,7.89-19.8,1.04-.54-.51-3.1,1.23-4.76,1.78-5.43,1.82-8.48-1.31-9.79-5.76-1.04-3.52,1.91-6.97,4.93-5.34,3.89,2.09,7.28.09,10.06.67,6.41,1.32,15.29-2.12,19.36,7.61Z"/>
  <path class="cls-1" d="m294.71,225.77c3.44-2.58,9.55-2.25,9.42-8.69-.04-2.26.58-4.69-1.73-6.33-1.95-1.39-4.15-3.25-2.07-5.5,1.83-1.98,4.95-.85,7.37-.39,2.25.43,1.69,1.88.35,3.29-2.23,2.33-.65,5.43-1.34,8.11-.23.88-.04,2.47.55,2.87,3.57,2.42,7.48-.63,11.23.47,3.84,1.12,7.76,2.06,8.19-5.99,2.01,8.77,1.9,8.35-5.98,10.27-4.48,1.09-9.14-1.01-13.35,1.1,0,2.16,1.34,2.21,2.6,2.36,2.37.28,3.08,1.9,2.52,3.85-.56,1.94-2.35,1.3-3.89,1.3-5.76.01-9.04-4.92-13.86-6.75,0,0,0,.03,0,.03Z"/>
  <path class="cls-1" d="m242.64,218.43c3.86.48,5.8,1.64,7.1,3.52,9.65,14.01,24.23,22.55,36.88,33.23,3.01,2.54,9.01,6.02,7.1,8.2-2.38,2.71-6.46-2.53-9.23-4.86-8.66-7.29-18.53-13.02-26.48-21.26-5.43-5.63-10.01-11.75-15.36-18.83Z"/>
  <path class="cls-1" d="m260.14,24.27c-5.71,2.64-11.4,1.81-16.99,1.5-12.99-.71-22.96,4.01-29.59,15.39-1.14,1.95-2.9,4.66-5.15,3.02-1.72-1.25-.16-3.48,1.2-5.7,6.86-11.18,17.54-14.41,29.29-18.17,9.15-2.93,13.88,4.93,21.25,3.95Z"/>
  <path class="cls-1" d="m303.73,189c.42-3.22,1.83-6.76-2.73-8.36-1.16-.41-3.02-1.38-3.34.02-2.62,11.33-8.85-2.18-12.41,1.9-2.33-2.16-1.65-4.96-.69-7.12,1.06-2.4,3.32-2.42,4.58.17,1.41,2.92,3.44,1.24,5.28,1.03,6.97-.77,13.85-.4,20.46,2.07,1.87.7,3.97,1.72,3.84,4.25-.16,3.14-2.78,2.51-4.65,2.51-3.9,0-6.34,4.44-10.54,3.3,0,0,.21.22.21.22Z"/>
  <path class="cls-1" d="m289.54,246.23c-4.7,1.67-8.39-2.18-10.47-4.28-10.94-11.07-24.02-20.39-30.89-35.07-.84-1.79-4.15-3.7-.46-5.31,2.3-1,4.15.34,4.53,3.51.55,4.62,4.51,7.4,7.31,10.56,8.97,10.15,17.93,20.39,29.33,28.03,1.1.74.73,1.77.43,2.75l.21-.2Z"/>
  <path class="cls-1" d="m455.52,392.6c8.14,8.15,18.61,10.53,23.71,19.74.95,1.72,3.62,3.52,1.36,5.06-5.69,3.88-5.7,9.53-5.46,15.72-8.11-7.02-8.18-9.37-1.28-16.23,1.97-1.96,3.01-3.75-.61-5.85-4.29-2.49-7.25-6.82-11.98-9.05-2.74-1.29-5.57-3.52-5.74-9.38Z"/>
  <path class="cls-1" d="m110.8,183.75c-2.71-32.1-.71-64.38,0-96.67v96.67Z"/>
  <path class="cls-1" d="m322.32,267.9c.8-4.62-2.14-8.48-2.57-12.85.68-1.63,1.37-3.27,2.05-4.9,4.23-6.25,8.53-12.55,4.72-20.53-.6-1.25-1.14-1.43.49-1.58,3.7-.36,5.63-1.95,4.58-6.04-.31-1.2.2-2.77,1.96-2.5,1.63.25,1.43,1.79,1.49,3.04.3,6.27-2.4,11.92-4.26,17.59-2.65,8.12-5.64,16.04-5.82,24.71-.04,1.78-.94,2.85-2.81,2.93,0,0,.16.14.16.14Z"/>
  <path class="cls-1" d="m170.91,82.97c-6.05-3.14-8.7-8.94-7.31-15.14,2.06-9.16,6.89-17.1,15.72-21.76,2.13-1.13,4.51-2.23,5.66.86.71,1.9.06,3.6-2.42,4.79-15.19,7.31-18.26,16.25-11.66,31.25Z"/>
  <path class="cls-1" d="m261.18,580.01c5.18-6.1,11.96-10.53,17.22-16.66,2.35-2.74,7.45,3.71,10.82-1.32.47,1.19.89,1.96.78,2.04-6.96,5.48-12.97,12.21-20.96,16.28-2.46,1.25-5.44,1.88-7.96-.51-.01-.02.1.16.1.16Z"/>
  <path class="cls-1" d="m462.56,449.13c-6.96.4-13.57,3.77-20.3-1.08-1.92-1.38-4.36,1.81-6.31,3.43-1.28,1.06-2.83,2.95-4.54,1.05-1.44-1.6.03-3.16.9-4.77,1.62-2.99,3.79-3.86,7.2-4.33,5.9-.81,11.63,1.31,17.56-.02,3.07-.68,4.3,2.8,5.48,5.71Z"/>
  <path class="cls-1" d="m355.05,476.23h50.65c0,.79,0,1.58,0,2.36-16.94-1.18-33.85,2.67-50.81.13.05-.83.1-1.66.15-2.49Z"/>
  <path class="cls-1" d="m93.95,176.19c6.9,5.73,8.34,13.52,8.38,21.73.02,3.58-3,3.31-5.62,3.45-5.17.27-2.37-6.14-6.34-7.34-1.36-.41.83-2.75,1.87-3.36,5.7-3.38,5.36-7.04,1.06-11.3-.76-.75-.43-1.91.66-3.18Z"/>
  <path class="cls-1" d="m223.5,116.69c.95-1.22,2.39-1.41,3.4-.65,6.03,4.53,10.67,2.07,15.62-2.21,4.46-3.86,15.01.82,15.59,6.59.17,1.69-1.09,1.92-2.58,1.83-2.35-.13-3.55-1.91-5.02-3.24-3.13-2.83-5.52-3.4-9.08.14-5.3,5.29-13.68,3.77-17.94-2.46Z"/>
  <path class="cls-1" d="m114.48,32.14c0,5.65-.02,11.3.01,16.96,0,1.72-.63,3.03-2.26,3.64-.63.23-1.72.38-2.07.03-1.5-1.5.46-2.73.53-4.04.61-11.14,2.13-22.3,0-33.43-.34-1.78-2.8-4.2.82-4.68,2.83-.37,2.77,2.54,2.8,4.53.1,5.66.03,11.32.03,16.98.05,0,.1,0,.14,0Z"/>
  <path class="cls-1" d="m557.3,438c-2.92-15.85-2-31.63-1.91-47.41.64,0,1.27,0,1.91-.01v47.43Z"/>
  <path class="cls-1" d="m321.8,250.15c-.68,1.63-1.37,3.27-2.05,4.9-4.29.86-4.69-3-6.16-5.32-.77-1.21-.46-3.06-1.1-4.39-1.2-2.49-5.98-4.21-3.21-7.38,2.55-2.91,6.71-.76,11.09-.01-6.45,5.25.25,8.19,1.44,12.2Z"/>
  <path class="cls-1" d="m420.19,446.23c.42,3.81,5.6,5.28,3.65,6.79-4.22,3.26-9.39,6.5-15.28,4.82-1.86-.53-6.03-.25-4.93-4.31.82-3.04,4.49-4.04,6.23-2.84,5.21,3.57,7.02-.36,10.33-4.45Z"/>
  <path class="cls-1" d="m198.46,137.1c5.22,1.16,10.61,1.36,8.97,8.63-.47,2.07.99,5.79-1.73,5.78-2.78-.01-6.82-1.09-7.19-5.38-.24-2.76-.04-5.56-.04-9.03Z"/>
  <path class="cls-1" d="m182.39,70.91c-.03.15-.95-2.43,1.6-2.4,2.65.03,1.58,2.61,1.78,4.21.82,6.77,2.1,13.05,10.43,14.74,1.55.31,5.16,1.67,3.34,4.62-1.11,1.8-3.45.65-5.48-.28-8.27-3.82-12.13-10.18-11.68-20.89Z"/>
  <path class="cls-1" d="m303.23,284.04c-11.36,2.59-13.35-11-22.56-9.85,5.89-4.27,11.79-1.61,22.56,9.85Z"/>
  <path class="cls-1" d="m120.45,191.67c-1.87,3.9-3.59,7.87-5.65,11.67-1.32,2.43-3.13.99-4.4-.2-2.01-1.88-4.66-4.63-2.65-6.91,1.7-1.93,6.8-1.07,3.54-6.14-.4-.62,2.1-1.2,3.21-.85,2.12.68,4.11,1.75,6.15,2.65,0,0-.21-.22-.21-.22Z"/>
  <path class="cls-1" d="m530.47,448.92v-42.93c.47,0,.93,0,1.4,0v43.01c-.47-.03-.93-.06-1.4-.09Z"/>
  <path class="cls-1" d="m326.5,472.29c-.26-.02.88-.2,1.77.19,2.04.89,6.18-1.47,5.96,2.58-.22,4.16-3.29,2.98-6.33,2.24-2.16-.52-4.75,1.02-7.19,1.23-2.12.18-5.33,1.38-5.84-1.76-.48-2.92,2.01-4.41,4.95-4.48,1.8-.04,3.59,0,6.67,0Z"/>
  <path class="cls-1" d="m42.37,454.79v-32c.39-.01.78-.03,1.17-.04v32.03c-.39,0-.78,0-1.17.01Z"/>
  <path class="cls-1" d="m484.4,421.87v34.12c-.51,0-1.02.01-1.54.02v-34.12c.51,0,1.02-.02,1.54-.02Z"/>
  <path class="cls-1" d="m616.65,448.96c1.1-11.28,2.19-22.57,3.31-34.06,3.05,7.71,1.66,28.14-3.31,34.06Z"/>
  <path class="cls-1" d="m213.45,113.91c-9.96,1.61-19.22-2.7-21.75-9.26-.66-1.72-2.05-4.27.59-5.35,2.67-1.09,2.43,1.83,3.04,3.24,3.12,7.26,10.74,7.69,18.12,11.37Z"/>
  <path class="cls-1" d="m75.82,59.19c-2.52-3.48-1.7-7.32-1.92-11.09-.31-5.39-1.62-10.56-8.59-10.89-1.37-.06-2.68.02-2.41-1.86.17-1.25.62-2.29,2.05-2.93,4.65-2.1,10.07,1.69,10.75,8.5.6,6.03.13,12.17.13,18.27Z"/>
  <path class="cls-1" d="m150.17,89.73c-9.89-1.74-13.6-12.78-8.05-24.2,2.34,1.13,1.28,3.24.99,4.64-1.68,8.03,4.39,13.24,6.89,19.73l.17-.18Z"/>
  <path class="cls-1" d="m150,89.9c2.6-.61,4.53-.39,6.6,2.05,2.01,2.36,5,4.23,8.59,4.3,1.98.04,4.59-.06,4.09,3.06-.55,3.45-3.66,2.85-5.5,2.12-5.8-2.3-10.64-5.99-13.6-11.72,0,0-.17.18-.17.18Z"/>
  <path class="cls-1" d="m70.22,82.68c-9.79-4.62-5.72-11.99-5.37-18.5.07-1.35.5-2.57,2.24-2.34,1.49.2,2.56,1.3,2.03,2.61-2.45,6.08.38,11.91,1.1,18.22Z"/>
  <path class="cls-1" d="m629.21,480.39c-.21-2.17,1.79-2.3,2.88-3.14,3.49-2.7,7.2-1.8,10.78-.19.92.42,1.36,1.77.57,2.62-2.62,2.8-6.13,1.83-9.33,1.8-1.64-.01-3.58.54-4.9-1.1Z"/>
  <path class="cls-1" d="m299.62,553.78c-4.75,1.52-9.15-.48-11.49,3.85-.55,1.02-3.08,1.06-3.96-.61-.73-1.39-.47-3.43.79-4.26,2.45-1.62,4.23-5.35,7.45-4.45,2.34.65,3.35,4.06,7.21,5.47Z"/>
  <path class="cls-1" d="m58.51,384.41c-8.2,3.89-15.95,4.01-22.84-3.03,7.51,1.45,15.38.17,22.73,3.16.04-.03.1-.13.1-.13Z"/>
  <path class="cls-1" d="m104.29,5.61c.29,2.56.63,5.11.9,7.67.24,2.25-.76,3.62-3.07,3.21-2.46-.44-1.57-1.83-.76-3.35,1.2-2.21,1.14-4.27-.97-6.23-1.8-1.67-2.7-4.01-.72-6.11.68-.73,2.45-.97,3.53-.69,3.85.99,1.62,3.47,1.09,5.49Z"/>
  <path class="cls-1" d="m388.77,246.08c1.44,4.36,3.47,8.71-4.73,7.45-2.15-.33-4.49,3.25-7.6,1.74,0,0,.14.2.14.2,1.51-6.59,6.51-8.5,12.38-9.26l-.2-.13Z"/>
  <path class="cls-1" d="m670.83,428.22c1.4-3.11.96-6.42,1.04-9.67.07-2.72,1.85-3.87,4.01-4.92,1.43-.7,2.26-.37,3.2.76,2.07,2.49.46,3.53-1.61,4.46,4.28,7.74-4.49,6.21-6.66,9.37,0,0,.03,0,.03,0Z"/>
  <path class="cls-1" d="m605.09,424.24c-2.16-1.25-1.67-2.61-1.68-3.79-.02-6.22-.01-12.44,1.68-18.67v22.46Z"/>
  <path class="cls-1" d="m240.15,202c-4.74-4.17-10.71-4.07-13.28-9.35-.51-1.05-2.03-1.99-.54-3.24.48-.4,1.91-.58,2.11-.29,3.17,4.5,11.71,3.35,11.71,12.88Z"/>
  <path class="cls-1" d="m61.77,59.17c-1.45-4.93.91-9.26-2.13-12.81-.93-1.09-.32-3.07,1.27-3.89,2.09-1.08,2.29.93,3.19,2.04,4.26,5.22,2.2,9.56-2.33,14.67Z"/>
  <path class="cls-1" d="m339.7,173.94c-4.85,1.84-7.77,2.57-10.27,4.02-1.95,1.13-3.64,1.8-5.7.86-1.22-.56-1.18-1.82-.6-2.61,1.47-1.99,2.53-4.85,5.68-4.49,2.91.33,5.76,1.15,10.88,2.22Z"/>
  <path class="cls-1" d="m351.15,477.11c-1.66,2.86-4.63,2.18-6.82,3.19-2.49,1.15-4.49-.45-5.8-2.34-1.22-1.76,1.03-2.41,1.74-3.58,1.56-2.58,3.51-2.6,5.72-1.11,1.77,1.19,3.43,2.54,5.16,3.83Z"/>
  <path class="cls-1" d="m219.02,112.15c-4.03-7.84.72-12.6,1.12-17.86.07-.92,1.27-1.62,2.4-.94,1.26.76,1.51,2.2,1.19,3.35-1.26,4.56-2.74,9.06-4.71,15.45Z"/>
  <path class="cls-1" d="m146.12,127.04c-.12,1.8-1.35,2-2.46,2.63-4.4,2.54-7.47-3.46-11.77-1.71-.35.14-.84-2.21.18-2.28,4.18-.29,8.43-2.27,12.58.03.61.34,1.06.96,1.46,1.33Z"/>
  <path class="cls-1" d="m289.33,246.43c7,.54,8.64,7.17,12.46,11.31-5.63-2.13-11.07-4.49-12.25-11.51,0,0-.22.2-.22.2Z"/>
  <path class="cls-1" d="m280.94,199.77c-.28,3.19-2.02,5.49-3.85,4.15-2.81-2.06-8.27,2.14-8.63-3.15-.3-4.31,4.14-2.41,6.48-2.54,2.07-.11,5.24-1.56,6.01,1.53Z"/>
  <path class="cls-1" d="m52.24,407.89c2.03,5.03,2.46,10.03.75,15.54-5.56-5.39-1.65-10.55-.75-15.54Z"/>
  <path class="cls-1" d="m340.68,201.08c.12,1.76.52,3.55.32,5.26-.54,4.49-1.31,8.91-7.23,4.02-1.07-.88-3.06.82-4.56-2.14,7.53,2.88,7.64-4.76,11.67-6.97,0,0-.19-.17-.19-.17Z"/>
  <path class="cls-1" d="m78.18,302.28c1.73,3.09,7.84-1.62,7.83,4.28,0,1.49-.39,3.82-1.92,3.67-4.19-.39-5.06-4.11-5.91-7.96Z"/>
  <path class="cls-1" d="m75,105.78c2.09,1.98,4.56,4.1,5.04,7.52.23,1.65-.68,3.12-2.65,2.64-4.46-1.1-2.43-6.14-4.94-8.6-.55-.54.97-1.42,2.55-1.56Z"/>
  <path class="cls-1" d="m84.19,53.55c.31-7.21,4.09-10.2,9.18-8.88,1.54.4,2.25,1.17,2.12,2.61-.13,1.5-1.1,2.56-2.57,1.78-4.05-2.12-6.48-.04-8.72,4.49Z"/>
  <path class="cls-1" d="m321.22,208.66c-.66,2.87-2.61,4.18-5.32,4.5-1.61.19-3.35-.03-2.95-2.23.5-2.75,1.62-5.75,4.47-6.41,2.41-.56,2.31,2.8,3.8,4.14Z"/>
  <path class="cls-1" d="m70.12,303.28c.9,5.55,1.5,8.95,1.97,12.37.18,1.35-.32,2.56-1.91,2.71-1.81.17-2-1.29-1.99-2.52.02-3.46-.48-7,1.93-12.57Z"/>
  <path class="cls-1" d="m335.14,26.91c2.95,1.34,2.07,3.76,2.36,5.58.29,1.81,3.08,3.32.85,5.39-.45.42-1.53.51-2.16.3-3.31-1.12-1.61-3.83-1.57-5.86.03-1.67-1.37-3.46.52-5.4Z"/>
  <path class="cls-1" d="m218.28,142.26c-.91-3.87-3.43-7.84.53-11.12.65-.54,2.69-.63,2.74-.48,1.5,4.46-2.71,7.51-3.27,11.6Z"/>
  <path class="cls-1" d="m206.04,136.06c-1.43-5.09-2.08-8.81-6.8-8.31-1.01.11-1.3-1.34-.97-2.41.35-1.15,1.22-1.57,2.34-1.41,5.95.86,8.48,3.88,5.43,12.12Z"/>
  <path class="cls-1" d="m84.29,318.37c1.42,4.41,2.53,8.86-.14,13.78-.63-4.51-1.26-9.01-1.89-13.52.68-.09,1.36-.17,2.04-.26Z"/>
  <path class="cls-1" d="m196.95,201.86c-2.52-4.39-5.59-6.86-10.26-8.38,7.46-2.17,10.52.28,10.26,8.38Z"/>
  <path class="cls-1" d="m400.47,458.35c-3.81,1.22-6.7,1.04-9.94.56q4.6-5.29,9.94-.56Z"/>
  <path class="cls-1" d="m283.83,199.3c3.81-2.24,7.12-1.27,10.37-.86,1.94.24,2.55,1.89,2.11,3.45-.8,2.89-2.22.65-3.36.15-2.72-1.21-6.19.38-9.13-2.74Z"/>
  <path class="cls-1" d="m328.41,106.55c-.28,2.86-1.52,5.62-4.64,4.21-2.53-1.14-6.39-3-3.45-8.16,2.01,3.3,4.87,4.44,8.29,4.17,0,0-.2-.22-.2-.22Z"/>
  <path class="cls-1" d="m569.18,409.78c-3.85-2.38-1.81-4.52-1.44-6.61.4-2.2.46-4.45,1.44-6.76v13.36Z"/>
  <path class="cls-1" d="m469.93,455.01c-1.11,3.04-3.95,3.62-6.68,4.17-1.2.24-3-1.41-2.8-1.46,3.27-.73,3.98-4.69,6.92-5.4,1.18-.29,2.11,1.21,2.56,2.69Z"/>
  <path class="cls-1" d="m163.69,135.47c-1.14-.9-3.91-.98-2.89-2.77,1.08-1.89,2.06-4.96,5.43-4.37,1.43.25,2.51,1.14,1.79,2.63-.93,1.9-1.24,4.62-4.32,4.52Z"/>
  <path class="cls-1" d="m73.83,82.67c4.35,4.18,2.71,7.47,1.15,10.62-.43.86-2.11,1.19-2.62.3-2.29-4,1.07-6.74,1.47-10.92Z"/>
  <path class="cls-1" d="m346.76,486.18c.44,1.18-.23,1.92-1.11,2.45-2.56,1.56-2.3,6.56-6.82,5.61-.3-.06-.64-1.78-.51-1.84,3.19-1.58,1.29-10.14,8.44-6.22Z"/>
  <path class="cls-1" d="m427.71,67.88c1.92,2.39,4.17,2.87,7.38,2.78,12.72-.39,25.46-.16,38.19-.16l.29,2.29c-5,1.65-10,3.29-15.34,5.05,7.03,4.4,13.22,3.39,17.55-2.14,2.41-3.08,5.96-1.95,9.18-1.61.5.93,1,1.85,1.51,2.78-4.81,2.7-9.6,5.46-14.45,8.08-4.31,2.32-9.37,2.85-13.36.76-4.07-2.13-7.94-1.26-11.9-1.8-5.15-.7-4.04,2.2-2.99,5.01,1.67,4.48,5.71,6.7,9.28,9.41-11.36-2.53-14.66-14.33-23.67-19.2,1.91-3.51,5.47-.79,7.68-4.09-3.72-.55-7.05-.99-10.35-1.55-2.05-.35-5.39.84-5.28-2.74.14-4.36,3.51-3.32,6.27-2.88Z"/>
  <path class="cls-1" d="m609.88,276.99c3.78,1.72,1.84,4.04.65,6.28-1.2,2.24-3.1,2.64-5.21,1.65-2.44-1.14-4.75-2.54-7.12-3.83,1.53-1.71.53-4.79,3.01-5.92,3.51-1.59,6.48-.32,9.11,2.14,0,0-.43-.32-.43-.32Z"/>
  <path class="cls-1" d="m267.88,322.11c6.06-1.97,9.8,3.31,14.64,5.02,6.73,2.37,13.32,4.81,20.4,5.93,2.09.33,5.05,1.34,3.99,4.45-.93,2.76-3.51,1.38-5.32.88-9.93-2.77-19.05-8.05-29.52-9.25-4.11-.47-3.93-4.08-4.02-7.19l-.17.16Z"/>
  <path class="cls-1" d="m224.18,244.61c-4.4.17-8.1,4.13-12.81,1.79-1.42-.71-3.51.4-3.75,2.76-.19,1.93-.59,3.55-3.26,2.87-2.18-.55-3.95-1.93-4.59-3.72-.75-2.09,1.08-4.03,2.82-4.8,7.26-3.23,14.53-2.47,21.58,1.11Z"/>
  <path class="cls-1" d="m268.06,321.94c-6.92.23-20.26-7.38-21.63-12.34,0,0-.16.17-.16.17,8.71,1.48,15.83,5.74,21.62,12.34,0,0,.17-.16.17-.16Z"/>
  <path class="cls-1" d="m272.48,339.82c8.11-.16,15.04,3.6,22.1,6.99-8.28.88-15.1-3.33-22.1-6.99Z"/>
  <path class="cls-1" d="m286.24,300.54c5.72-1.73,9.45,3.16,14.18,4.68-5.8,1.93-9.99-1.11-13.95-4.9,0,0-.23.23-.23.23Z"/>
  <path class="cls-1" d="m202.67,231.08c-4.53,2.06-8.99,2.78-13.39,0h13.39Z"/>
  <path class="cls-1" d="m415.22,84.46c-2.25,2.93-5.55,4.88-3.19,9.26,2.32,4.31,4.37,7.88,10.01,8.19,7.7.42,15.52.94,18.62,10.27,1.02,3.08,2.85-.1,4.32-.26,1.55-.17,3.39-.63,4.25.86,1.26,2.2-.89,3.01-2.25,4.13-3.49,2.87-6.89,3.03-10.23-.17-1.1-1.05-1.9-2.56-3.17-3.25-2.9-1.56-6.83-3.53-8.79.02-1.75,3.17,2.09,3.88,4.54,5.39,3.36,2.07,7.7,3.76,8.11,9.17.35,4.54,3.82,6.9,9.08,7.26-2.45,3.26-5.85,2.83-7.22,1.85-10.69-7.69-25.37-11.08-27.8-27.75-.93-6.36-6.3-11.71-7.49-18.71-.45-2.64-4.81-4.86-8.98-4.27-3.17.45-6.32-1.37-5.72-4.5.63-3.3,4.86-2.13,6.51-1.22,5.99,3.3,12.84,1.47,19.41,3.73Z"/>
  <path class="cls-1" d="m472.57,129.83c-7.67,1.16-15.3,1.4-22.78-1.03-1.37-.44-3.36-.85-2.73-2.92.67-2.21,3.15-2.49,4.36-1.43,2.5,2.19,4.52,2.1,7.16.47,1.89-1.16,4.67-.93,5.51.92,1.88,4.16,5.85,1.72,8.48,3.99Z"/>
  <path class="cls-1" d="m212.61,428.05c1.98.34,2.18,1.25,1.64,3.21-1.56,5.66-2.51,11.17,5.76,12.63,1.7.3,3,2.26,2.21,4.28-.98,2.53-3.07,1.04-4.62.75-4.28-.8-6.8-3.05-6.42-7.88.25-3.29-.07-6.63-.06-9.95,0-1.2-.28-2.63,1.5-3.03Z"/>
  <path class="cls-1" d="m210.87,391.56c3.07,2.74,1.61,7.18,6.9,8.58,2.22.59-1.14,4.21-1.44,6.61-.23,1.81-2.26,2.13-3.74,1.72-2.37-.67-1.61-2.96-1.67-4.59-.16-4.1-.05-8.21-.05-12.32Z"/>
  <path class="cls-1" d="m269.34,391.86c3.63,7.62,1.14,14.26,3.02,20.35.45,1.45-.64,2.45-2.07,2.58-1.72.16-2.06-1.01-1.91-2.46.65-6.24-1.16-12.6.96-20.47Z"/>
  <path class="cls-1" d="m269.25,421.91c2.41,6.84,2.95,13.71.44,22.37-2.48-8.54-.85-15.49-.44-22.37Z"/>
  <path class="cls-1" d="m219.63,494c1.36,6.56-2.16,10.42-5.35,12.56-3.19,2.14-3.96,4.39-5.47,7.45-2.69,5.43-.5,7.44,3.69,9.37,1.47.68,4.02.42,2.52,3.35-.98,1.91-2.09,3.91-4.57,3.08-4.43-1.47-8.81-3.15-13.06-5.08-1.53-.7-3.04-2.31-1.88-4.41,1.18-2.14,2.1-5.05,5.52-3.94,2.92.95,3.73-.28,3.75-2.91.03-2.92-1.6-3.31-4.05-3.06-2.13.22-4.62.66-5.43-2.87,10.94,1.27,17.24-5.43,24.32-13.53Z"/>
  <path class="cls-1" d="m214.05,492.95c-3.6,6.09-11.27,4-14.91,8.8-.07.09-1.32-.56-1.87-1.03-1.1-.96-.15-1.54.37-2.44,3.66-6.21,8.84-7.89,16.41-5.33Z"/>
  <path class="cls-1" d="m207.74,542.08c-1.65,3.41-5.08,4.71-8.48,5.59-1.43.37-3.27-2.43-2.71-2.97,2.56-2.51,5.33-5.11,9.21-5.41,1.55-.12,2.14,1.08,1.98,2.8Z"/>
  <path class="cls-1" d="m545.45,284.82c4.03-6.26,4.43-13.08,3.18-20.17,0,0-.16.16-.16.16,3.09.72,8.51,6.39,6.75-3.22-.26-1.4.74-2.32,2.21-2.64,4.31-.91,7-3.39,7.7-7.89.33-2.1,1.99-2.24,3.54-1.7,1.62.57,1.38,1.9.67,3.13-6.51,11.33-13.17,22.57-21.89,32.4-.28.31-1.44-.16-2.18-.26l.18.18Z"/>
  <path class="cls-1" d="m545.27,284.63c.57,8.13-6.73,10.93-11.21,15.23-1.62,1.56-4.03,3.48-6.41,4.91.13-4.41,13.3-19.07,17.79-19.95,0,0-.18-.19-.18-.19Z"/>
  <path class="cls-1" d="m466.58,359.28c4.45-1.08,9.01-.74,12.91-3.68,1.93-1.46,4.05-.37,4.83,1.91.9,2.62-1.38,2.49-2.99,3.19-5.12,2.24-9.76-1.1-14.74-1.42Z"/>
  <path class="cls-1" d="m328.98,417.08c1.53-6.66-2.23-13.26,2.46-19.23,1.19-1.52.13-3.39-.98-4.94-2.51-3.5.69-3.78,2.73-4.45,1.83-.61,3.83-1.78,4.95,1.38,1.81,5.09-3.97,23.94-9.16,27.25Z"/>
  <path class="cls-1" d="m378.53,392.82c-3.8-3.3-2.1-6.48-2.18-9.34-.08-3,.75-6.14-2.42-8.35-1.12-.78-2.77-2.11-1.51-3.73.61-.79,2.28-1.03,3.47-1.02,1.61.01,3.14.8,3.09,2.7-.15,6.28,1.75,12.61-.44,19.75Z"/>
  <path class="cls-1" d="m381.65,410.28c-.92-.46-1.64-.62-1.66-.86-.33-3.08-4.41-5.3-2.17-8.89.58-.93,1.97-.78,2.67-.03,2.77,2.93,1.74,6.23,1.15,9.77Z"/>
  <path class="cls-1" d="m346.88,442.51c2.67-5.07,6.4-8.95,12.47-10.18-2.62,5.16-6.97,8.32-12.61,9.97l.15.21Z"/>
  <path class="cls-1" d="m346.73,442.3c-.86,2.6-1.41,5.36-2.67,7.74-.86,1.63-2.87,3.78-4.78,2.41-2.14-1.53-.51-3.68,1.05-5,2.08-1.77,4.37-3.28,6.56-4.92-.01-.01-.16-.22-.16-.22Z"/>
  <path class="cls-1" d="m112.57,441.51c-5.68,2.47-12.6-.97-17,5.43-1.11,1.62-3.56,2.76-2.38,5.1,1.09,2.18,3.56,1.66,5.54,1.6,5.66-.16,11.32-.42,16.97-.72,2.11-.11,5.23-2.33,5.84,1.03.68,3.79-5.28,5.64-5.83,5.37-8.91-4.42-19.42.25-28.21-5.4-3.07-1.98-2.65-3.27-1.34-5.19,3.6-5.26,7.96-9.31,15.13-8.31,3.74.52,7.52.73,11.28,1.09Z"/>
  <path class="cls-1" d="m387.74,237.77c-6.41,2.34-9.98,7.12-16.18,4.04,3.5-6.56,8.63-5.77,16.18-4.04Z"/>
  <path class="cls-1" d="m346.62,258.18c1.38-1.88,1.87-4.57,5.58-3.39,2.93.93,1.43-3.99,4.09-4.31q.71,8.88-9.86,7.55s.19.16.19.16Z"/>
  <path class="cls-1" d="m366.43,218.98c4.85-.65,7.33-.99,9.81-1.3,1.69-.21,4.02-.94,3.89,1.83-.1,2.09-1.59,3.98-4.14,3.26-2.57-.73-5.01-1.95-9.56-3.79Z"/>
  <path class="cls-1" d="m645.08,224.58c-6.36,3.3-4.22,5.61-1.54,8.14,1.46,1.38,2.9,3.09,3.53,4.93.57,1.7,1.49,4.3-1.13,5.37-1.88.77-3.58-.17-4.31-2.17-1.63-4.47-3.95-4.12-7.7-2.01-4.27,2.39-10.23,1.66-15.83-1.39,10.2-.61,13.49-13.16,26.99-12.87Z"/>
  <path class="cls-1" d="m615.73,261.2c-2.84.19-5.51-2.89-8.71.33-1.2,1.2-5.52,1.05-6.35-2.04-.95-3.51,2.14-6.39,3.41-9.44.7-1.68,3.45,1.1,4.77,2.36,2.72,2.57,5.79,5.01,6.64,9,.01-.01.25-.22.25-.22Z"/>
  <path class="cls-1" d="m672.42,213.49c2.65.32,5.31.94,7.96-.02.24,6.75-3.41,12.59-4.53,19.04-.57,3.29-4.08,3.32-6.51,4.46.13-2.85.71-5.6,2.52-7.86,4.1-5.1,4.55-10.27.56-15.63Z"/>
  <path class="cls-1" d="m609.23,246.8c6.32-.87,10.12.5,10.5,7.5-4.41-1.26-7.85-2.93-10.5-7.5Z"/>
  <path class="cls-1" d="m533.11,29.1c4.24,5.72,10.37,2.03,15.54,3.11-.13,5.35-4.28,6.62-8.18,6.88-4.14.27-8.37-.79-14.18-1.45,4.58-2.07,2.19-7.41,6.82-8.53Z"/>
  <path class="cls-1" d="m440.47,275.55c-4.79,4.42-9.06,5.54-14.02,2.7-.94-.54-1.92-.99-1.82-2.15.13-1.66,1.51-2.14,2.78-1.78,3.92,1.11,8.12-1.02,13.06,1.22Z"/>
  <path class="cls-1" d="m428.09,288.62c-.07,1.67-.77,2.53-2.31,2.56-3.42.08-5.69-2.04-7.38-4.52-.84-1.23.51-2.3,2.03-2.18,3.2.25,5.59,2.01,7.66,4.13Z"/>
  <path class="cls-1" d="m187.1,582.41c-6.75.64-12.41,6.8-20.66,3.66,6.75-4.5,13.22-6.57,20.66-3.66Z"/>
  <path class="cls-1" d="m207.13,568.89c1.84-1.4,4.69-.14,6.2-2.28.82-1.17,1.86-2.08,2.98-.94.8.81,1.62,2.67,1.23,3.43-1.94,3.71-6.51,4.25-9.58,4.88-3.03.63.63-3.53-.57-5.36,0,.01-.27.27-.27.27Z"/>
  <path class="cls-1" d="m133.18,580.96c3-8.82,7.98-3.56,13.29-1.69-4.68,3.23-9.42-.47-13.46,1.5,0,0,.17.19.17.19Z"/>
  <path class="cls-1" d="m268.08,526.46c-2.37-.45-2.94,2.7-5.63,2.67-1.54-4.85,4.2-7.28,4.7-11.65.26,3.04.52,6.09.78,9.13,0,0,.15-.16.15-.16Z"/>
  <path class="cls-1" d="m192.15,574.25c4.25.67,8.87.46,12.16,6.03-5.67-.1-9.64-1.4-11.98-6.27,0-.01-.18.24-.18.24Z"/>
  <path class="cls-1" d="m425.02,332.35c-7.51-1.94-13.86-5.32-17.77-12.57-1-1.85-1.72-2.96-.22-4.55,1.06-1.13,2.21-2.34,3.94-1.81,3.19.97.64,2.76.51,4.22-.14,1.61.29,3.92,1.69,3.82,8.15-.59,8.26,6.92,11.67,11.08-.02.02.17-.19.17-.19Z"/>
  <path class="cls-1" d="m415.04,338.68c.49-2.15,2.6-3.52,3.89-2.47,6.46,5.31,5.21-.8,6.09-3.85.01-.01-.18.19-.16.17,1.48,1.84,5.99,3.05,2.83,6.1-3.82,3.69-8.6,5.68-12.79-.17,0-.01.15.21.15.21Z"/>
  <path class="cls-1" d="m143.95,354.6c8.6-.69,17.47,1.57,25.8-2.34.51-.24,1.64.04,1.96.47.34.44.26,1.47-.01,2.05-2.28,4.83-24.23,4.48-27.54-.41,0,0-.21.22-.21.22Z"/>
  <path class="cls-1" d="m108.26,523.56c.01-1.36.02-2.72.03-4.08,5.06,3.29,11.08-1.5,16.88,2.13-5.65,4.28-11.57.93-16.92,1.95Z"/>
  <path class="cls-1" d="m614.38,299.64c.21,4.38-7.79,14.32-11.72,14.48-.65.03-1.86-.35-1.88-.61-.07-.93,0-2.05.47-2.81,3.17-5.17,7.93-8.44,13.35-10.87-.02-.02-.22-.19-.22-.19Z"/>
  <path class="cls-1" d="m600.05,289.31c1.23-.68,1.46-.92,1.66-.9,3.97.38,6.95,2.43,8.89,5.79.8,1.38-.7,2.76-1.73,2.79-5.08.15-5.25-5.18-8.82-7.68Z"/>
  <path class="cls-1" d="m474.08,306.38c-.66,5.31-2.74,8.49-6.98,2.69-3.65-5-6.23.98-9.25.01-.47-7.32,3.77-7.36,8.82-5.48,2.55.95,4.48,3.48,7.62,3.02,0,0-.22-.24-.22-.24Z"/>
  <path class="cls-1" d="m329.28,351.88c7.18-1.27,14.36-2.53,21.54-3.8-5.96,8.29-13.76,6.24-21.24,5.98-.1-.73-.2-1.46-.3-2.19Z"/>
  <path class="cls-1" d="m489.79,251.57c1.6-2.85,2.01-6.25,6.11-5.69,1.56.21,2.12,1.23,1.76,2.64-.98,3.86-3.66,4.22-7.87,3.06Z"/>
</svg>